<?xml version="1.0" encoding="UTF-8"?>
<svg xmlns="http://www.w3.org/2000/svg" width="40" height="35" viewBox="0 0 40 35" fill="none">
  <path d="M22.1053 27.3438C22.1053 27.959 21.5789 28.4375 21.0526 28.4375H18.9474C18.3553 28.4375 17.8947 27.959 17.8947 27.3438C17.8947 26.7969 18.3553 26.25 18.9474 26.25H21.0526C21.5789 26.25 22.1053 26.7969 22.1053 27.3438ZM14.7368 26.25H11.5789C10.9868 26.25 10.5263 26.7969 10.5263 27.3438C10.5263 27.959 10.9868 28.4375 11.5789 28.4375H14.7368C15.2632 28.4375 15.7895 27.959 15.7895 27.3438C15.7895 26.7969 15.2632 26.25 14.7368 26.25ZM10.2632 17.7734C10.2632 15.2441 12.2368 13.125 14.7368 13.125C17.1711 13.125 19.2105 15.2441 19.2105 17.7734C19.2105 20.3711 17.1711 22.4219 14.7368 22.4219C12.2368 22.4219 10.2632 20.3711 10.2632 17.7734ZM13.4211 17.7734C13.4211 18.5938 13.9474 19.1406 14.7368 19.1406C15.4605 19.1406 16.0526 18.5938 16.0526 17.7734C16.0526 17.0215 15.4605 16.4062 14.7368 16.4062C13.9474 16.4062 13.4211 17.0215 13.4211 17.7734ZM29.7368 17.7734C29.7368 20.3711 27.6974 22.4219 25.1974 22.4219C22.7632 22.4219 20.7237 20.3027 20.7237 17.7734C20.7237 15.2441 22.7632 13.1934 25.1974 13.1934C27.6974 13.125 29.7368 15.2441 29.7368 17.7734ZM26.5132 17.7734C26.5132 17.0215 25.9211 16.4746 25.1974 16.4746C24.4737 16.4746 23.9474 17.0215 23.9474 17.7734C23.9474 18.5938 24.4737 19.1406 25.1974 19.1406C25.9211 19.1406 26.5132 18.5254 26.5132 17.7734ZM28.4211 26.25H25.2632C24.6711 26.25 24.2105 26.7969 24.2105 27.3438C24.2105 27.959 24.6711 28.4375 25.2632 28.4375H28.4211C28.9474 28.4375 29.4737 27.959 29.4737 27.3438C29.4737 26.7969 28.9474 26.25 28.4211 26.25ZM34.7368 12.0312V29.5312C34.7368 32.6074 32.3684 35 29.4737 35H10.5263C7.56579 35 5.26316 32.6074 5.26316 29.5312V12.0312C5.26316 9.02344 7.56579 6.5625 10.5263 6.5625H18.4211V1.64062C18.4211 0.751953 19.0789 0 20 0C20.8553 0 21.5789 0.751953 21.5789 1.64062V6.5625H29.4737C32.3684 6.5625 34.7368 9.02344 34.7368 12.0312ZM31.5789 12.0312C31.5789 10.8691 30.5921 9.84375 29.4737 9.84375H10.5263C9.34211 9.84375 8.42105 10.8691 8.42105 12.0312V29.5312C8.42105 30.7617 9.34211 31.7188 10.5263 31.7188H29.4737C30.5921 31.7188 31.5789 30.7617 31.5789 29.5312V12.0312ZM37.8947 13.125H36.8421V26.25H37.8947C39.0132 26.25 40 25.293 40 24.0625V15.3125C40 14.1504 39.0132 13.125 37.8947 13.125ZM0 15.3125V24.0625C0 25.293 0.921053 26.25 2.03947 26.25H3.15789V13.125H2.10526C0.921053 13.125 0 14.1504 0 15.3125Z" fill="#6A5CED"></path>
</svg>
