<svg xmlns="http://www.w3.org/2000/svg" width="853" height="480" fill="none"><rect width="513" height="222" x="176" y="128" stroke="#C6FF00" stroke-width="4" rx="111"/><path fill="#174EA6" d="M412.301 107.335c0-23.355 18.934-42.29 42.29-42.29h248.026c23.356 0 42.29 18.935 42.29 42.29V226.73c0 23.356-18.934 42.289-42.29 42.289H454.591c-23.356 0-42.29-18.933-42.29-42.289V107.335Z"/><path fill="#4285F4" d="M399.438 107.335c0-23.355 18.933-42.29 42.289-42.29h248.026c23.356 0 42.29 18.935 42.29 42.29V226.73c0 23.356-18.934 42.289-42.29 42.289H441.727c-23.356 0-42.289-18.933-42.289-42.289V107.335Z"/><path fill="#E6F4EA" d="M414.138 107.94c0-15.57 12.623-28.193 28.193-28.193h246.818c15.571 0 28.193 12.622 28.193 28.193v118.185c0 15.571-12.622 28.193-28.193 28.193H442.331c-15.57 0-28.193-12.622-28.193-28.193V107.94Z"/><rect width="183.76" height="13.782" x="473.862" y="269.019" fill="#4285F4" rx="6.891"/><path fill="#0D652D" fill-rule="evenodd" d="M309.215 93.646a3.356 3.356 0 0 1 4.731-.384c3.532 3.002 10.928 11.467 12.913 22.2a3.357 3.357 0 0 1-6.601 1.221c-1.608-8.7-7.831-15.903-10.659-18.306a3.357 3.357 0 0 1-.384-4.731ZM324.491 135.992a3.356 3.356 0 0 1 2.491 4.04c-1.069 4.511-5.251 14.945-13.911 21.589a3.356 3.356 0 1 1-4.086-5.326c7.02-5.385 10.61-14.201 11.466-17.811a3.357 3.357 0 0 1 4.04-2.492Z" clip-rule="evenodd"/><rect width="41.346" height="156.196" x="260.848" y="49.428" fill="#4285F4" rx="20.673"/><circle cx="280.96" cy="126.531" r="43.085" fill="#34A853"/><circle cx="281.379" cy="127.106" r="34.891" fill="#CEEAD6"/><path fill="#fff" d="M316.27 127.106a34.897 34.897 0 0 0-10.219-24.671 34.894 34.894 0 0 0-24.672-10.22v34.891h34.891Z"/><path fill="#34A853" d="M576.572 419.465h-24.231l42.021-227.157h4.003c20.947 0 37.07 18.498 34.21 39.249l-21.793 158.09c-2.355 17.088-16.96 29.818-34.21 29.818Z"/><path fill="#fff" d="M508.759 221.957C511.052 204.806 525.685 192 542.988 192h41.157c20.89 0 36.997 18.403 34.229 39.109l-21.217 158.7c-2.292 17.151-16.925 29.957-34.228 29.957h-41.157c-20.89 0-36.997-18.403-34.229-39.109l21.216-158.7Z"/><path stroke="#AECBFA" stroke-linecap="round" stroke-width="4" d="M589.403 192.612h-47.605c-17.277 0-31.895 12.767-34.219 29.887L486.32 379.058c-2.815 20.728 13.301 39.179 34.219 39.179h43.453"/><path fill="#CEEAD6" d="M573.717 232.688a4.39 4.39 0 0 1 3.909 0l3.744 1.862a4.415 4.415 0 0 0 1.693.451l4.736.282a4.374 4.374 0 0 1 3.385 1.944l2.508 3.777c.325.49.746.909 1.239 1.232l3.168 2.08a4.345 4.345 0 0 1 1.954 3.366l.284 4.714c.036.586.19 1.159.454 1.683l1.653 3.289a4.323 4.323 0 0 1 0 3.886l-1.408 2.802a4.331 4.331 0 0 0-.454 1.683l-.314 5.2a4.338 4.338 0 0 1-1.954 3.366l-3.93 2.58a4.379 4.379 0 0 0-1.239 1.232l-2.176 3.278a4.374 4.374 0 0 1-3.385 1.944l-4.492.268a4.38 4.38 0 0 0-1.693.451l-3.773 1.876a4.39 4.39 0 0 1-3.909 0l-3.862-1.92a4.38 4.38 0 0 0-1.693-.451l-3.75-.224a4.374 4.374 0 0 1-3.385-1.944l-2.176-3.276a4.357 4.357 0 0 0-1.239-1.233l-3.93-2.58a4.344 4.344 0 0 1-1.955-3.366l-.224-3.727a4.34 4.34 0 0 0-.454-1.683l-2.15-4.276a4.323 4.323 0 0 1 0-3.886l2.394-4.761a4.34 4.34 0 0 0 .454-1.684l.195-3.24a4.344 4.344 0 0 1 1.954-3.366l3.168-2.08a4.366 4.366 0 0 0 1.239-1.232l2.508-3.778a4.374 4.374 0 0 1 3.385-1.944l3.996-.238a4.392 4.392 0 0 0 1.692-.451l3.833-1.906Z"/><rect width="5.934" height="15.443" x="579.036" y="258.718" fill="#4285F4" rx="2.967" transform="rotate(120 579.036 258.718)"/><rect width="5.934" height="21.098" x="572.585" y="256.931" fill="#4285F4" rx="2.967"/><circle cx="563.64" cy="204.72" r="3.515" fill="#4285F4"/><rect width="5.744" height="25.951" x="620.966" y="261.676" stroke="#0D652D" stroke-width="2.998" rx="2.872" transform="rotate(7.835 620.966 261.676)"/><rect width="5.744" height="48.193" x="616.031" y="297.417" stroke="#0D652D" stroke-width="2.998" rx="2.872" transform="rotate(7.835 616.031 297.417)"/><circle cx="512.6" cy="393.217" r="11.944" fill="#CEEAD6"/><circle cx="541.085" cy="393.217" r="11.944" fill="#CEEAD6"/><circle cx="569.566" cy="393.217" r="11.944" fill="#CEEAD6"/><path fill="#34A853" d="M125 258.952C125 245.171 136.171 234 149.952 234h217.096C380.829 234 392 245.171 392 258.952v115.096C392 387.829 380.829 399 367.048 399H149.952C136.171 399 125 387.829 125 374.048V258.952Z"/><path fill="#fff" d="M138 262.635c0-9.187 7.448-16.635 16.635-16.635h207.73c9.187 0 16.635 7.448 16.635 16.635v107.73c0 9.187-7.448 16.635-16.635 16.635h-207.73c-9.187 0-16.635-7.448-16.635-16.635v-107.73Z"/><path fill="#34A853" d="M94 409.5c0-5.799 4.701-10.5 10.5-10.5h307c5.799 0 10.5 4.701 10.5 10.5s-4.701 10.5-10.5 10.5h-307c-5.799 0-10.5-4.701-10.5-10.5Z"/><path fill="#C6FF00" d="M216 399h84a8 8 0 0 1-8 8h-68a8 8 0 0 1-8-8Z"/><path stroke="#0D652D" stroke-linecap="round" stroke-linejoin="round" stroke-width="4" d="M140 398h236"/><path stroke="#AECBFA" stroke-linecap="round" stroke-linejoin="round" stroke-width="4" d="M175.889 263.5C187.451 313.627 232.361 351 286 351h77.5"/><path stroke="#34A853" stroke-linecap="round" stroke-linejoin="round" stroke-width="4" d="M688 240c0-62.408-50.592-113-113-113H432.5"/></svg>