<svg xmlns="http://www.w3.org/2000/svg" width="96" height="96" fill="none"><path fill="#4285F4" d="M15.692 37.374a6.088 6.088 0 0 1 6.089-6.089h52.823a6.088 6.088 0 0 1 6.088 6.089V65.58a6.088 6.088 0 0 1-6.088 6.089H21.781a6.088 6.088 0 0 1-6.089-6.089V37.374Z"/><path fill="#E8F0FE" d="M19 38.421a4.059 4.059 0 0 1 4.06-4.059h50.727a4.059 4.059 0 0 1 4.06 4.06v26.112a4.059 4.059 0 0 1-4.06 4.06H23.06A4.059 4.059 0 0 1 19 64.533V38.421Z"/><path fill="#4285F4" d="M8 74.362a2.692 2.692 0 0 1 2.692-2.692h74.616a2.692 2.692 0 0 1 0 5.385H10.692A2.692 2.692 0 0 1 8 74.362Z"/><path fill="#AECBFA" d="M38 71.67h20a2.308 2.308 0 0 1-2.308 2.308H40.308A2.308 2.308 0 0 1 38 71.67Z"/><path stroke="#174EA6" stroke-linecap="round" stroke-linejoin="round" stroke-width="1.154" d="M19.208 71.302h57.307"/><g clip-path="url(#a)"><path fill="#34A853" d="M59.39 60.369a11.581 11.581 0 0 0-.665-2.481 11.743 11.743 0 0 0-1.388-2.568 11.792 11.792 0 0 0-1.911-2.094 11.84 11.84 0 0 0-1.468-1.08l.013-.023.712-1.226.695-1.198.499-.86a1.08 1.08 0 0 0-1.867-1.083l-.5.86-.695 1.198-.711 1.226-.078.135-.108-.043a11.789 11.789 0 0 0-4.205-.77l-.122.001a11.797 11.797 0 0 0-4.17.803c-.023-.042-.048-.083-.072-.125l-.711-1.226a4677.726 4677.726 0 0 0-1.195-2.059 1.078 1.078 0 0 0-1.867 1.083l.499.86.695 1.198.712 1.227.005.01a11.873 11.873 0 0 0-4.256 4.584 11.751 11.751 0 0 0-1.264 4.168h23.49a11.85 11.85 0 0 0-.068-.516l.002-.001Z"/><path fill="#202124" d="M53.822 57.641c.47-.312.538-1.035.152-1.615-.385-.58-1.079-.796-1.549-.483-.47.313-.538 1.036-.152 1.615.385.58 1.079.796 1.549.483ZM43.172 57.16c.385-.58.317-1.302-.153-1.615-.47-.313-1.164-.096-1.55.483-.385.58-.317 1.303.153 1.615.47.313 1.164.097 1.55-.483Z"/></g><path fill="#0D652D" d="m55.035 43.849-.007-.308-15.215-.165v8.543c.008 1.558 4.007 3.415 7.759 3.415l.16-.003c1.986-.028 4.026-.596 5.472-1.364 1.196-.637 1.983-1.41 1.983-2.127-.001-1.448-.122-6.667-.152-7.991Z"/><g filter="url(#b)"><path fill="#34A853" d="M50.724 52.39a9 9 0 0 1-6.444 0l-13.264-5.085c-.802-.307-.798-1.211.007-1.513l14.645-5.506a5.216 5.216 0 0 1 1.833-.328c.635 0 1.261.112 1.833.328l14.643 5.507c.805.302.81 1.206.007 1.514l-13.26 5.083Z"/></g><circle cx="57.109" cy="56.188" r="1.708" fill="#4285F4"/><path fill="#AECBFA" fill-rule="evenodd" d="M46.663 44.643a.821.821 0 0 1 1.097-.38l9.673 4.701a.822.822 0 0 1 .462.74v4.846a.821.821 0 1 1-1.642 0v-4.333l-9.21-4.475a.82.82 0 0 1-.38-1.098Z" clip-rule="evenodd"/><defs><clipPath id="a"><path fill="#fff" d="M35.969 47.22h23.49v13.666h-23.49z"/></clipPath><filter id="b" width="34.167" height="13.028" x="30.417" y="39.958" color-interpolation-filters="sRGB" filterUnits="userSpaceOnUse"><feFlood flood-opacity="0" result="BackgroundImageFix"/><feColorMatrix in="SourceAlpha" result="hardAlpha" values="0 0 0 0 0 0 0 0 0 0 0 0 0 0 0 0 0 0 127 0"/><feOffset/><feComposite in2="hardAlpha" operator="out"/><feColorMatrix values="0 0 0 0 0.258824 0 0 0 0 0.521569 0 0 0 0 0.956863 0 0 0 1 0"/><feBlend in2="BackgroundImageFix" result="effect1_dropShadow_152_11712"/><feBlend in="SourceGraphic" in2="effect1_dropShadow_152_11712" result="shape"/></filter></defs></svg>