<?xml version="1.0" encoding="UTF-8"?>
<svg xmlns="http://www.w3.org/2000/svg" width="40" height="35" viewBox="0 0 40 35" fill="none">
  <path d="M10.5625 8.18685C10 7.50284 9.0625 7.50284 8.4375 8.11844L0.4375 16.3266C0.125 16.6002 0 17.079 0 17.4894C0 17.9682 0.125 18.3786 0.4375 18.7206L8.4375 26.9287C8.75 27.2023 9.125 27.3391 9.4375 27.3391C9.8125 27.3391 10.1875 27.2023 10.5 26.8603C11.0625 26.1763 11.0625 25.1503 10.4375 24.5347L3.6875 17.4894L10.5 10.5125C11.125 9.89687 11.125 8.87085 10.5625 8.18685ZM24.375 0.0471383C23.5625 -0.158064 22.75 0.320742 22.5 1.20995L14.5 32.948C14.3125 33.8372 14.75 34.7264 15.5625 35C15.6875 35 15.8125 35 16 35C16.625 35 17.25 34.5896 17.4375 33.8372L25.4375 2.09917C25.625 1.20995 25.1875 0.320742 24.375 0.0471383ZM39.5 16.3266L31.5 8.11844C30.875 7.50284 29.9375 7.50284 29.375 8.18685C28.8125 8.87085 28.8125 9.89687 29.4375 10.5125L36.25 17.4894L29.4375 24.5347C28.8125 25.1503 28.8125 26.1763 29.375 26.8603C29.6875 27.2023 30.0625 27.3391 30.5 27.3391C30.8125 27.3391 31.1875 27.2023 31.5 26.9287L39.5 18.7206C39.8125 18.3786 40 17.9682 40 17.4894C40 17.079 39.8125 16.6002 39.5 16.3266Z" fill="#6A5CED"></path>
</svg>
