<?xml version="1.0" encoding="UTF-8"?>
<svg xmlns="http://www.w3.org/2000/svg" width="40" height="35" viewBox="0 0 40 35" fill="none">
  <path d="M35.5556 0H11.1111C8.61111 0 6.66667 1.98242 6.66667 4.375V24.0625C6.66667 26.5234 8.61111 28.4375 11.1111 28.4375H35.5556C37.9861 28.4375 40 26.5234 40 24.0625V4.375C40 1.98242 37.9861 0 35.5556 0ZM36.6667 24.0625C36.6667 24.6777 36.1111 25.1562 35.5556 25.1562H11.1111C10.4861 25.1562 10 24.6777 10 24.0625V8.75H36.6667V24.0625ZM3.33333 29.5312V6.5625C1.45833 6.5625 0 8.06641 0 9.84375V30.625C0 33.0859 1.94444 35 4.44444 35H30C31.8056 35 33.3333 33.5645 33.3333 31.7188H5.55556C4.30556 31.7188 3.33333 30.7617 3.33333 29.5312Z" fill="#6A5CED"></path>
</svg>
