<svg width="72" height="72" viewBox="0 0 72 72" fill="none" xmlns="http://www.w3.org/2000/svg">
    <path fill-rule="evenodd" clip-rule="evenodd" d="M43.125 4.5C29.663 4.5 18.75 15.413 18.75 28.875S29.663 53.25 43.125 53.25 67.5 42.337 67.5 28.875 56.587 4.5 43.125 4.5" fill="url(#a)"/>
    <path fill-rule="evenodd" clip-rule="evenodd" d="M33.75 9C17.596 9 4.5 22.096 4.5 38.25S17.596 67.5 33.75 67.5C49.905 67.5 63 54.404 63 38.25S49.905 9 33.75 9m0 .75c15.715 0 28.5 12.785 28.5 28.5s-12.785 28.5-28.5 28.5c-15.714 0-28.5-12.785-28.5-28.5s12.786-28.5 28.5-28.5" fill="#000"/>
    <path fill-rule="evenodd" clip-rule="evenodd" d="M46.685 48.967c-3.935-.469-8.225-.722-12.565-.739V38.62h14.043c-.028 3.619-.486 7.133-1.478 10.347m-25.87 0c-.992-3.214-1.45-6.728-1.478-10.347H33.38v9.608c-4.34.017-8.63.27-12.565.74m0-21.435c3.934.469 8.224.723 12.565.739v9.608H19.337c.029-3.618.486-7.134 1.478-10.347m25.87 0c.992 3.213 1.45 6.729 1.478 10.347H34.12v-9.608c4.34-.016 8.63-.27 12.565-.74M58.51 37.88h-9.609c-.38-3.753-.828-7.402-1.478-11.087 2.67-.025 5.396-.497 8.13-.739.043-.387.169-.586 0-.739.078-.247-.12-.37 0 0-2.9.258-5.63.728-8.13.74-1.57-4.488-3.563-8.638-5.913-11.088-.332-.505-.567-.516-.74-.739-.13.499-.142.733 0 .74 2.448 2.846 4.376 6.847 5.914 11.826-4.272.17-8.393.426-12.565.739V13.489c.002-.573-.165-.739 0-.739-.575 0-.74.166-.74.74v14.043a359.044 359.044 0 0 0-12.565-.74c1.538-4.978 3.466-8.979 5.913-11.826.143-.006.131-.24 0-.739-.172.223-.407.234-.739.74-2.35 2.45-4.343 6.599-5.913 11.086-2.5-.011-5.23-.481-8.13-.739.12-.371-.078-.247 0 0-.169.153-.043.352 0 .74 2.735.241 5.46.713 8.13.739-.65 3.684-1.097 7.333-1.478 11.086H8.989c-.572 0-.739.165-.739.74 0-.165.167.002.74 0h9.608c.381 3.753.828 7.402 1.478 11.087-2.67.025-5.395.497-8.13.739-.043.387-.169.586 0 .739-.078.248.12.372 0 0 2.9-.258 5.63-.728 8.13-.74 1.57 4.488 3.563 8.638 5.913 11.088.267.434.368.475.74.739-.181-.264-.092-.296 0 0 .13-.499.142-.733 0-.74-2.448-2.846-4.375-6.847-5.914-11.825 4.272-.172 8.393-.426 12.565-.74v14.044c0 .573.165.739.74.739-.165 0 .002-.166 0-.74V48.968c4.172.314 8.293.568 12.565.74-1.538 4.978-3.466 8.979-5.913 11.826-.143.006-.131.24 0 .739.091-.296.18-.264 0 0 .37-.264.472-.305.739-.74 2.35-2.45 4.343-6.599 5.913-11.086 2.5.011 5.23.481 8.13.739-.293.333-.266.336 0 0-.069.336.084.22 0 0 .169-.153.043-.352 0-.74-2.734-.241-5.46-.713-8.13-.739.65-3.684 1.097-7.333 1.478-11.086h9.609c.572.002.739-.165.739 0 0-.575-.167-.74-.74-.74" fill="#000"/>
    <defs>
        <linearGradient id="a" x1="5.204" y1="35.109" x2="51.169" y2="82.34" gradientUnits="userSpaceOnUse">
            <stop stop-color="#FF8C00"/>
            <stop offset=".596" stop-color="#F22E83"/>
            <stop offset=".999" stop-color="#002EC7"/>
        </linearGradient>
    </defs>
</svg>
