<svg xmlns="http://www.w3.org/2000/svg" width="96" height="96" fill="none"><path fill="#0D652D" fill-rule="evenodd" d="M62.763 24h2.705c9.773 0 17.78 7.56 18.493 17.15l3.756 16.901c1.668 7.506-4.044 14.627-11.733 14.627a12.02 12.02 0 0 1-9.488-4.64l-5.405-6.95H33.917l-5.405 6.95a12.02 12.02 0 0 1-9.488 4.64c-7.69 0-13.4-7.12-11.733-14.627l3.756-16.904C11.761 31.558 19.767 24 29.54 24H62.764Z" clip-rule="evenodd"/><path fill="#34A853" d="M11 42.544C11 32.302 19.302 24 29.544 24h35.929c10.241 0 18.544 8.302 18.544 18.544 0 10.241-8.303 18.544-18.544 18.544h-35.93C19.304 61.088 11 52.785 11 42.544Z"/><rect width="22" height="22" x="51" y="30" fill="#CEEAD6" rx="11"/><rect width="5.25" height="5.249" x="59.35" y="33.328" fill="#34A853" rx="2.625"/><rect width="5.249" height="5.25" x="69.849" y="38.575" fill="#34A853" rx="2.625" transform="rotate(90 69.85 38.575)"/><rect width="5.25" height="5.249" x="59.35" y="43.826" fill="#34A853" rx="2.625"/><rect width="5.249" height="5.25" x="59.35" y="38.575" fill="#34A853" rx="2.625" transform="rotate(90 59.35 38.575)"/><rect width="10" height="4" x="43" y="52" fill="#fff" rx="2"/><rect width="22" height="22" x="22" y="30" fill="#E6F4EA" rx="11"/><rect width="4" height="14" x="31" y="34" fill="#4285F4" rx="2"/><rect width="4" height="14" x="40" y="39" fill="#4285F4" rx="2" transform="rotate(90 40 39)"/></svg>