<?xml version="1.0" encoding="UTF-8"?>
<svg xmlns="http://www.w3.org/2000/svg" width="44" height="44" viewBox="0 0 44 44" fill="none">
  <path d="M22 7.33334C20.2982 7.33334 18.6661 8.00938 17.4627 9.21274C16.2594 10.4161 15.5833 12.0482 15.5833 13.75C15.5833 15.4518 16.2594 17.0839 17.4627 18.2873C18.6661 19.4906 20.2982 20.1667 22 20.1667C23.7018 20.1667 25.3339 19.4906 26.5373 18.2873C27.7406 17.0839 28.4167 15.4518 28.4167 13.75C28.4167 12.0482 27.7406 10.4161 26.5373 9.21274C25.3339 8.00938 23.7018 7.33334 22 7.33334ZM8.25 12.8333C7.03442 12.8333 5.86864 13.3162 5.00909 14.1758C4.14955 15.0353 3.66667 16.2011 3.66667 17.4167C3.66667 18.0186 3.78522 18.6146 4.01555 19.1706C4.24589 19.7267 4.58349 20.232 5.00909 20.6576C5.86864 21.5171 7.03442 22 8.25 22C8.85189 22 9.44789 21.8815 10.004 21.6511C10.56 21.4208 11.0653 21.0832 11.4909 20.6576C11.9165 20.232 12.2541 19.7267 12.4844 19.1706C12.7148 18.6146 12.8333 18.0186 12.8333 17.4167C12.8333 16.8148 12.7148 16.2188 12.4844 15.6627C12.2541 15.1066 11.9165 14.6014 11.4909 14.1758C11.0653 13.7502 10.56 13.4126 10.004 13.1822C9.44789 12.9519 8.85189 12.8333 8.25 12.8333ZM35.75 12.8333C34.5344 12.8333 33.3686 13.3162 32.5091 14.1758C31.6496 15.0353 31.1667 16.2011 31.1667 17.4167C31.1667 18.0186 31.2852 18.6146 31.5156 19.1706C31.7459 19.7267 32.0835 20.232 32.5091 20.6576C33.3686 21.5171 34.5344 22 35.75 22C36.3519 22 36.9479 21.8815 37.504 21.6511C38.06 21.4208 38.5653 21.0832 38.9909 20.6576C39.4165 20.232 39.7541 19.7267 39.9844 19.1706C40.2148 18.6146 40.3333 18.0186 40.3333 17.4167C40.3333 16.2011 39.8504 15.0353 38.9909 14.1758C38.1314 13.3162 36.9656 12.8333 35.75 12.8333ZM22 23.8333C17.7173 23.8333 9.16667 25.9838 9.16667 30.25V34.8333C9.16667 35.8453 9.988 36.6667 11 36.6667H33C34.012 36.6667 34.8333 35.8453 34.8333 34.8333V30.25C34.8333 25.9838 26.2827 23.8333 22 23.8333ZM7.14714 25.7634C4.24864 26.2107 0 28.2133 0 30.626V34.8333C0 35.8453 0.821333 36.6667 1.83333 36.6667H5.5V30.25C5.5 28.4882 6.1333 27.01 7.14714 25.7634ZM36.8529 25.7634C37.8667 27.01 38.5 28.4882 38.5 30.25V36.6667H42.1667C43.1787 36.6667 44 35.8453 44 34.8333V30.626C44 28.2133 39.7514 26.2107 36.8529 25.7634Z" fill="#6D5BF6"></path>
</svg>
