<svg xmlns="http://www.w3.org/2000/svg" width="480" height="480" fill="none"><path fill="#34A853" d="M280.865 182.609a5.218 5.218 0 0 0-5.218-5.217v25.217a5.218 5.218 0 0 0 5.218-5.217v-14.783ZM280.864 222.606a5.218 5.218 0 0 0-5.218-5.217v41.739a5.218 5.218 0 0 0 5.218-5.218v-31.304Z"/><rect width="155.261" height="322.218" x="102.364" y="78.891" fill="#34A853" stroke="#34A853" stroke-width="3" rx="43.5"/><rect width="158.261" height="325.218" x="118.256" y="77.391" fill="#fff" rx="45"/><path stroke="#A0C2F9" stroke-linecap="round" stroke-width="4" d="M161.734 401.74h69.783c24.852 0 45-20.147 45-45V123.262c0-24.853-20.148-45-45-45h-67.174"/><circle cx="196.951" cy="93.478" r="4.783" fill="#4285F4"/><rect width="122" height="128.488" x="136.387" y="245.926" stroke="#AECBFA" stroke-width="2" rx="23"/><circle cx="197.387" cy="176" r="56" fill="#C6FF00"/><path fill="#AECBFA" d="M309.507 132.64c.657-2.22 3.802-2.22 4.459 0l1.624 5.482a4.652 4.652 0 0 0 3.139 3.138l5.481 1.624c2.22.658 2.22 3.802 0 4.46l-5.481 1.624a4.654 4.654 0 0 0-3.139 3.138l-1.624 5.482c-.657 2.22-3.802 2.22-4.459 0l-1.624-5.482a4.656 4.656 0 0 0-3.139-3.138l-5.482-1.624c-2.219-.658-2.219-3.802 0-4.46l5.482-1.624a4.652 4.652 0 0 0 3.139-3.138l1.624-5.482ZM350.12 176.465c.831-2.802 4.799-2.802 5.629 0l3.594 12.132a5.869 5.869 0 0 0 3.961 3.961l12.132 3.595c2.802.83 2.802 4.798 0 5.628l-12.132 3.594a5.873 5.873 0 0 0-3.961 3.961l-3.594 12.132c-.83 2.802-4.798 2.802-5.629 0l-3.594-12.132a5.873 5.873 0 0 0-3.961-3.961l-12.132-3.594c-2.802-.83-2.802-4.798 0-5.628l12.132-3.595a5.869 5.869 0 0 0 3.961-3.961l3.594-12.132Z"/><path fill="#34A853" d="M193.869 147.873c1.038-3.502 5.998-3.502 7.035 0l4.493 15.165a7.339 7.339 0 0 0 4.951 4.951l15.166 4.493c3.502 1.038 3.502 5.998 0 7.036l-15.166 4.493a7.339 7.339 0 0 0-4.951 4.951l-4.493 15.165c-1.037 3.502-5.997 3.502-7.035 0l-4.493-15.165a7.339 7.339 0 0 0-4.951-4.951l-15.165-4.493c-3.502-1.038-3.502-5.998 0-7.036l15.165-4.493a7.339 7.339 0 0 0 4.951-4.951l4.493-15.165Z"/><path fill="#0D652D" d="M252.883 323.609v-16.676a8.338 8.338 0 0 1 8.338-8.337h79.208c6.907 0 12.506 5.599 12.506 12.506s-5.599 12.507-12.506 12.507h-87.546Z"/><rect width="95.345" height="100.052" fill="#174EA6" rx="11.771" transform="matrix(0 -1 -1 0 319.655 359.345)"/><rect width="164.792" height="100.052" fill="#4285F4" rx="11.771" transform="matrix(.25882 -.96593 -.96593 -.25882 307.838 412.039)"/><path stroke="#C6FF00" stroke-linecap="round" stroke-width="2.943" d="m245.548 377.069 16.756-62.534M234.179 374.021l8.378-31.267"/><path fill="#D2E3FC" d="m290.783 407.469 42.651-159.177-22.74-6.093-42.65 159.177z"/><rect width="29.427" height="14.713" fill="#C6FF00" rx="7.357" transform="matrix(.25882 -.96593 -.96593 -.25882 272.927 280.821)"/><path fill="#34A853" d="M352.935 415.324c0 9.21-7.466 16.676-16.676 16.676H202.857a8.338 8.338 0 0 1-8.338-8.338v-83.377c0-9.21 7.466-16.676 16.676-16.676h141.74v91.715Z"/><path fill="#C6FF00" d="M219.533 361.128c9.209 0 16.675 7.466 16.675 16.675 0 9.21-7.466 16.676-16.675 16.676h-29.182a4.17 4.17 0 0 1-4.169-4.169v-25.013a4.169 4.169 0 0 1 4.169-4.169h29.182Z"/><circle cx="219.533" cy="377.805" r="8.338" fill="#0D652D"/><path fill="#34A853" fill-rule="evenodd" d="M352.936 326.241v-15.26l-.002.001.001.12c0 6.847-5.503 12.409-12.327 12.505h-1.322l.001.001h1.141l.18-.001h12.328v2.634Z" clip-rule="evenodd"/></svg>