<svg width="696" height="468" viewBox="0 0 696 468" fill="none" xmlns="http://www.w3.org/2000/svg">
<path d="M431.538 372.85H143.8C128.656 372.85 116.372 360.574 116.372 345.441V167.451C116.372 152.317 128.656 140.042 143.8 140.042H431.538C446.682 140.042 458.965 152.317 458.965 167.451V345.441C458.965 360.574 446.682 372.85 431.538 372.85Z" fill="#001F2C"/>
<path d="M431.538 359.313H143.8C128.656 359.313 116.372 347.038 116.372 331.904V153.831C116.372 138.697 128.656 126.422 143.8 126.422H431.538C446.682 126.422 458.965 138.697 458.965 153.831V331.904C458.965 347.038 446.682 359.313 431.538 359.313Z" fill="white" stroke="#001F2C" stroke-width="0.75" stroke-miterlimit="10"/>
<path d="M116.288 172.664H458.966" stroke="#231F20" stroke-width="0.75" stroke-miterlimit="10"/>
<path d="M411.935 429.349L398.221 429.265L391.069 415.56L404.531 415.308L411.935 429.349Z" fill="#00222F" stroke="#001E2B" stroke-width="0.75" stroke-miterlimit="10" stroke-linejoin="round"/>
<path d="M412.019 429.349L419.675 417.999L412.524 404.294L404.615 415.224L412.019 429.349Z" fill="white" stroke="#001E2B" stroke-width="0.75" stroke-miterlimit="10" stroke-linejoin="round"/>
<path d="M399.062 404.715L391.069 415.561L404.615 415.224L412.523 404.294L399.062 404.715Z" fill="white" stroke="#001E2B" stroke-width="0.75" stroke-miterlimit="10" stroke-linejoin="round"/>
<path d="M259.483 103.301C265.245 103.301 269.916 98.633 269.916 92.8752C269.916 87.1174 265.245 82.4497 259.483 82.4497C253.722 82.4497 249.051 87.1174 249.051 92.8752C249.051 98.633 253.722 103.301 259.483 103.301Z" fill="white" stroke="#001E2B" stroke-width="0.75" stroke-miterlimit="10"/>
<path d="M253.174 101.115C253.174 101.115 266.299 96.7428 268.234 87.074C270.505 90.1007 271.347 96.995 266.383 100.694C261.503 104.31 256.707 103.048 253.174 101.115Z" fill="#023430" stroke="#001E2B" stroke-width="0.75" stroke-miterlimit="10"/>
<path d="M229.448 145.255V258.842H142.79V175.354L172.91 145.255H229.448Z" fill="white" stroke="#231F20" stroke-width="0.75" stroke-miterlimit="10"/>
<path d="M143.632 175.018L172.658 146.011V175.018H143.632Z" fill="white"/>
<path d="M172.321 146.768V174.682H144.389L172.321 146.768ZM172.91 145.255L142.79 175.354H172.91V145.255Z" fill="#231F20"/>
<path d="M172.91 150.131H225.073V254.554H147.502V175.354H172.91V150.131Z" fill="#00ED64" stroke="#001E2B" stroke-width="0.75" stroke-miterlimit="10"/>
<path d="M169.629 175.354L171.732 181.996L142.79 175.354H169.629Z" fill="#001E2B"/>
<path d="M172.91 164.676H215.23C216.071 164.676 216.744 164.004 216.744 163.163V162.995C216.744 162.154 216.071 161.481 215.23 161.481H172.91V164.676Z" fill="#00ED64" stroke="#001E2B" stroke-width="0.75" stroke-miterlimit="10"/>
<path d="M181.155 178.465H215.229C216.071 178.465 216.744 177.792 216.744 176.952V176.783C216.744 175.943 216.071 175.27 215.229 175.27H181.155C180.314 175.27 179.641 175.943 179.641 176.783V176.952C179.725 177.792 180.398 178.465 181.155 178.465Z" fill="#00ED64" stroke="#001E2B" stroke-width="0.75" stroke-miterlimit="10"/>
<path d="M160.038 193.935H215.314C216.155 193.935 216.828 193.263 216.828 192.422V192.254C216.828 191.413 216.155 190.74 215.314 190.74H160.038C159.197 190.74 158.523 191.413 158.523 192.254V192.422C158.523 193.263 159.197 193.935 160.038 193.935Z" fill="#00ED64" stroke="#001E2B" stroke-width="0.75" stroke-miterlimit="10"/>
<path d="M160.038 224.707H215.314C216.155 224.707 216.828 224.034 216.828 223.194V223.026C216.828 222.185 216.155 221.512 215.314 221.512H160.038C159.197 221.512 158.523 222.185 158.523 223.026V223.194C158.523 224.034 159.197 224.707 160.038 224.707Z" fill="#00ED64" stroke="#001E2B" stroke-width="0.75" stroke-miterlimit="10"/>
<path d="M186.035 209.321H215.229C216.071 209.321 216.744 208.649 216.744 207.808V207.64C216.744 206.799 216.071 206.126 215.229 206.126H186.035C185.194 206.126 184.521 206.799 184.521 207.64V207.808C184.605 208.649 185.194 209.321 186.035 209.321Z" fill="#00ED64" stroke="#001E2B" stroke-width="0.75" stroke-miterlimit="10"/>
<path d="M160.038 209.321H175.687C176.528 209.321 177.201 208.649 177.201 207.808V207.64C177.201 206.799 176.528 206.126 175.687 206.126H160.038C159.197 206.126 158.523 206.799 158.523 207.64V207.808C158.523 208.649 159.197 209.321 160.038 209.321Z" fill="#00ED64" stroke="#001E2B" stroke-width="0.75" stroke-miterlimit="10"/>
<path d="M199.665 240.093H215.314C216.155 240.093 216.828 239.42 216.828 238.58V238.412C216.828 237.571 216.155 236.898 215.314 236.898H199.665C198.823 236.898 198.15 237.571 198.15 238.412V238.58C198.15 239.505 198.823 240.093 199.665 240.093Z" fill="#00ED64" stroke="#001E2B" stroke-width="0.75" stroke-miterlimit="10"/>
<path d="M160.038 240.093H190.831C191.672 240.093 192.345 239.42 192.345 238.58V238.412C192.345 237.571 191.672 236.898 190.831 236.898H160.038C159.197 236.898 158.523 237.571 158.523 238.412V238.58C158.523 239.505 159.197 240.093 160.038 240.093Z" fill="#00ED64" stroke="#001E2B" stroke-width="0.75" stroke-miterlimit="10"/>
<path d="M331.166 145.255V258.842H244.508V175.354L274.628 145.255H331.166Z" fill="white" stroke="#231F20" stroke-width="0.75" stroke-miterlimit="10"/>
<path d="M244.508 175.354L274.628 145.255V175.354H244.508Z" fill="white" stroke="#231F20" stroke-width="0.75" stroke-miterlimit="10" stroke-linejoin="round"/>
<path d="M274.628 150.131H326.707V254.554H249.136V175.354H274.628V150.131Z" fill="#FFC010" stroke="#001E2B" stroke-width="0.75" stroke-miterlimit="10"/>
<path d="M271.262 175.354L273.366 181.996L244.508 175.354H271.262Z" fill="#001E2B"/>
<path d="M432.8 145.255V258.842H346.142V175.354L376.262 145.255H432.8Z" fill="white" stroke="#231F20" stroke-width="0.75" stroke-miterlimit="10"/>
<path d="M346.142 175.354L376.262 145.255V175.354H346.142Z" fill="white" stroke="#231F20" stroke-width="0.75" stroke-miterlimit="10" stroke-linejoin="round"/>
<path d="M376.262 150.131H428.425V254.554H350.77V175.354H376.262V150.131Z" fill="#00ED64" stroke="#001E2B" stroke-width="0.75" stroke-miterlimit="10"/>
<path d="M372.896 175.354L375 181.996L346.142 175.354H372.896Z" fill="#001E2B"/>
<path d="M376.262 164.676H418.581C419.422 164.676 420.095 164.004 420.095 163.163V162.995C420.095 162.154 419.422 161.481 418.581 161.481H376.262V164.676Z" fill="#00ED64" stroke="#001E2B" stroke-width="0.75" stroke-miterlimit="10"/>
<path d="M384.507 178.465H418.581C419.422 178.465 420.095 177.792 420.095 176.952V176.783C420.095 175.943 419.422 175.27 418.581 175.27H384.507C383.665 175.27 382.992 175.943 382.992 176.783V176.952C383.076 177.792 383.665 178.465 384.507 178.465Z" fill="#00ED64" stroke="#001E2B" stroke-width="0.75" stroke-miterlimit="10"/>
<path d="M363.305 193.935H418.581C419.423 193.935 420.096 193.263 420.096 192.422V192.254C420.096 191.413 419.423 190.74 418.581 190.74H363.305C362.464 190.74 361.791 191.413 361.791 192.254V192.422C361.875 193.263 362.548 193.935 363.305 193.935Z" fill="#00ED64" stroke="#001E2B" stroke-width="0.75" stroke-miterlimit="10"/>
<path d="M363.305 224.707H418.581C419.423 224.707 420.096 224.034 420.096 223.194V223.026C420.096 222.185 419.423 221.512 418.581 221.512H363.305C362.464 221.512 361.791 222.185 361.791 223.026V223.194C361.875 224.034 362.548 224.707 363.305 224.707Z" fill="#00ED64" stroke="#001E2B" stroke-width="0.75" stroke-miterlimit="10"/>
<path d="M389.386 209.321H418.581C419.422 209.321 420.095 208.649 420.095 207.808V207.64C420.095 206.799 419.422 206.126 418.581 206.126H389.386C388.545 206.126 387.872 206.799 387.872 207.64V207.808C387.872 208.649 388.545 209.321 389.386 209.321Z" fill="#00ED64" stroke="#001E2B" stroke-width="0.75" stroke-miterlimit="10"/>
<path d="M363.305 209.321H378.954C379.796 209.321 380.469 208.649 380.469 207.808V207.64C380.469 206.799 379.796 206.126 378.954 206.126H363.305C362.464 206.126 361.791 206.799 361.791 207.64V207.808C361.875 208.649 362.548 209.321 363.305 209.321Z" fill="#00ED64" stroke="#001E2B" stroke-width="0.75" stroke-miterlimit="10"/>
<path d="M402.932 240.093H418.581C419.423 240.093 420.096 239.42 420.096 238.58V238.412C420.096 237.571 419.423 236.898 418.581 236.898H402.932C402.091 236.898 401.418 237.571 401.418 238.412V238.58C401.502 239.505 402.175 240.093 402.932 240.093Z" fill="#00ED64" stroke="#001E2B" stroke-width="0.75" stroke-miterlimit="10"/>
<path d="M363.305 240.093H394.098C394.94 240.093 395.613 239.42 395.613 238.58V238.412C395.613 237.571 394.94 236.898 394.098 236.898H363.305C362.464 236.898 361.791 237.571 361.791 238.412V238.58C361.875 239.505 362.548 240.093 363.305 240.093Z" fill="#00ED64" stroke="#001E2B" stroke-width="0.75" stroke-miterlimit="10"/>
<path d="M229.448 277.255V390.926H142.79V307.354L172.91 277.255H229.448Z" fill="white" stroke="#231F20" stroke-width="0.75" stroke-miterlimit="10"/>
<path d="M142.79 307.354L172.91 277.255V307.354H142.79Z" fill="white" stroke="#231F20" stroke-width="0.75" stroke-miterlimit="10" stroke-linejoin="round"/>
<path d="M172.91 282.131H225.073V386.638H147.502V307.354H172.91V282.131Z" fill="#FFE212" stroke="#001F2C" stroke-width="0.75" stroke-miterlimit="10"/>
<path d="M169.629 307.354L171.732 313.996L142.79 307.354H169.629Z" fill="#001E2B"/>
<path d="M331.166 277.255V390.926H244.508V307.354L274.628 277.255H331.166Z" fill="white" stroke="#231F20" stroke-width="0.75" stroke-miterlimit="10"/>
<path d="M244.508 307.354L274.628 277.255V307.354H244.508Z" fill="white" stroke="#231F20" stroke-width="0.75" stroke-miterlimit="10" stroke-linejoin="round"/>
<path d="M274.628 282.131H326.707V386.638H249.136V307.354H274.628V282.131Z" fill="#00ED64" stroke="#001E2B" stroke-width="0.75" stroke-miterlimit="10"/>
<path d="M271.262 307.354L273.366 313.996L244.508 307.354H271.262Z" fill="#001E2B"/>
<path d="M274.628 296.676H316.947C317.789 296.676 318.462 296.004 318.462 295.163V294.995C318.462 294.154 317.789 293.481 316.947 293.481H274.628V296.676Z" fill="#00ED64" stroke="#001E2B" stroke-width="0.75" stroke-miterlimit="10"/>
<path d="M282.873 310.549H316.947C317.788 310.549 318.461 309.877 318.461 309.036V308.868C318.461 308.027 317.788 307.354 316.947 307.354H282.873C282.031 307.354 281.358 308.027 281.358 308.868V309.036C281.358 309.877 282.031 310.549 282.873 310.549Z" fill="#00ED64" stroke="#001E2B" stroke-width="0.75" stroke-miterlimit="10"/>
<path d="M261.672 325.935H316.948C317.789 325.935 318.462 325.263 318.462 324.422V324.254C318.462 323.413 317.789 322.74 316.948 322.74H261.672C260.83 322.74 260.157 323.413 260.157 324.254V324.422C260.157 325.263 260.83 325.935 261.672 325.935Z" fill="#00ED64" stroke="#001E2B" stroke-width="0.75" stroke-miterlimit="10"/>
<path d="M261.672 356.791H316.948C317.789 356.791 318.462 356.118 318.462 355.278V355.11C318.462 354.269 317.789 353.596 316.948 353.596H261.672C260.83 353.596 260.157 354.269 260.157 355.11V355.278C260.157 356.118 260.83 356.791 261.672 356.791Z" fill="#00ED64" stroke="#001E2B" stroke-width="0.75" stroke-miterlimit="10"/>
<path d="M287.753 341.321H316.947C317.788 341.321 318.462 340.648 318.462 339.808V339.639C318.462 338.799 317.788 338.126 316.947 338.126H287.753C286.911 338.126 286.238 338.799 286.238 339.639V339.808C286.238 340.648 286.911 341.321 287.753 341.321Z" fill="#00ED64" stroke="#001E2B" stroke-width="0.75" stroke-miterlimit="10"/>
<path d="M261.672 341.321H277.321C278.162 341.321 278.835 340.648 278.835 339.808V339.639C278.835 338.799 278.162 338.126 277.321 338.126H261.672C260.83 338.126 260.157 338.799 260.157 339.639V339.808C260.157 340.648 260.83 341.321 261.672 341.321Z" fill="#00ED64" stroke="#001E2B" stroke-width="0.75" stroke-miterlimit="10"/>
<path d="M301.299 372.177H316.947C317.789 372.177 318.462 371.504 318.462 370.664V370.496C318.462 369.655 317.789 368.982 316.947 368.982H301.299C300.457 368.982 299.784 369.655 299.784 370.496V370.664C299.784 371.504 300.457 372.177 301.299 372.177Z" fill="#00ED64" stroke="#001E2B" stroke-width="0.75" stroke-miterlimit="10"/>
<path d="M261.672 372.177H292.465C293.306 372.177 293.979 371.504 293.979 370.664V370.496C293.979 369.655 293.306 368.982 292.465 368.982H261.672C260.83 368.982 260.157 369.655 260.157 370.496V370.664C260.157 371.504 260.83 372.177 261.672 372.177Z" fill="#00ED64" stroke="#001E2B" stroke-width="0.75" stroke-miterlimit="10"/>
<path d="M432.8 277.255V390.926H346.142V307.354L376.262 277.255H432.8Z" fill="white" stroke="#231F20" stroke-width="0.75" stroke-miterlimit="10"/>
<path d="M346.142 307.354L376.262 277.255V307.354H346.142Z" fill="white" stroke="#231F20" stroke-width="0.75" stroke-miterlimit="10" stroke-linejoin="round"/>
<path d="M376.262 282.131H428.425V386.638H350.77V307.354H376.262V282.131Z" fill="#FFE212" stroke="#001F2C" stroke-width="0.75" stroke-miterlimit="10"/>
<path d="M372.896 307.354L375 313.996L346.142 307.354H372.896Z" fill="#001E2B"/>
<path d="M421.946 363.685V381.089C421.946 399.67 459.049 414.72 504.818 414.72C550.587 414.72 587.69 399.67 587.69 381.089V363.685H421.946Z" fill="#001E2B" stroke="#001E2B" stroke-width="0.75" stroke-miterlimit="10"/>
<path d="M421.946 307.859V372.766C421.946 391.347 459.049 406.396 504.818 406.396C550.587 406.396 587.69 391.347 587.69 372.766V307.859C587.69 289.278 550.587 274.228 504.818 274.228C459.049 274.312 421.946 289.362 421.946 307.859Z" fill="#00ED64"/>
<path d="M587.69 307.859V372.766C587.69 391.347 550.587 406.396 504.818 406.396C459.049 406.396 421.946 391.347 421.946 372.766V307.859" stroke="#231F20" stroke-width="0.75" stroke-miterlimit="10"/>
<path d="M587.69 341.069C587.69 359.65 550.587 374.699 504.818 374.699C459.049 374.699 421.946 359.65 421.946 341.069" stroke="#231F20" stroke-width="0.75" stroke-miterlimit="10"/>
<path d="M571.536 287.933V392.692C581.632 387.143 587.69 380.249 587.69 372.766V307.859C587.69 300.46 581.716 293.566 571.536 287.933Z" fill="#001E2B" stroke="#001E2B" stroke-width="0.75" stroke-miterlimit="10"/>
<path d="M504.818 341.489C550.587 341.489 587.69 326.432 587.69 307.859C587.69 289.285 550.587 274.228 504.818 274.228C459.049 274.228 421.946 289.285 421.946 307.859C421.946 326.432 459.049 341.489 504.818 341.489Z" fill="white" stroke="#231F20" stroke-width="0.75" stroke-miterlimit="10"/>
<path d="M489.506 298.358V310.381C489.506 313.828 496.405 316.602 504.818 316.602C513.316 316.602 520.131 313.828 520.131 310.381V298.358C520.131 294.911 513.232 292.136 504.818 292.136C496.321 292.136 489.506 294.911 489.506 298.358Z" fill="#B1FF05" stroke="#001E2B" stroke-width="0.75" stroke-miterlimit="10"/>
<path d="M512.222 292.893L509.277 316.35C515.587 315.594 520.131 313.24 520.131 310.381V298.358C520.131 296.004 516.934 293.986 512.222 292.893Z" fill="#001E2B" stroke="#001E2B" stroke-width="0.75" stroke-miterlimit="10"/>
<path d="M587.69 212.348C587.69 193.767 550.587 178.717 504.818 178.717C459.049 178.717 421.946 193.767 421.946 212.348" stroke="#231F20" stroke-width="0.75" stroke-miterlimit="10"/>
<path d="M421.946 206.631V271.538C421.946 290.118 459.049 305.168 504.818 305.168C550.587 305.168 587.69 290.118 587.69 271.538V206.631C587.69 188.05 550.587 173 504.818 173C459.049 173.084 421.946 188.134 421.946 206.631Z" fill="#00ED64"/>
<path d="M571.536 186.704V291.464C581.632 285.915 587.69 279.02 587.69 271.537V206.63C587.69 199.232 581.716 192.337 571.536 186.704Z" fill="#001E2B" stroke="#001E2B" stroke-width="0.75" stroke-miterlimit="10"/>
<path d="M504.818 240.261C550.587 240.261 587.69 225.204 587.69 206.631C587.69 188.057 550.587 173 504.818 173C459.049 173 421.946 188.057 421.946 206.631C421.946 225.204 459.049 240.261 504.818 240.261Z" fill="white" stroke="#231F20" stroke-width="0.75" stroke-miterlimit="10"/>
<path d="M587.69 206.631V271.538C587.69 290.119 550.587 305.168 504.818 305.168C459.049 305.168 421.946 290.119 421.946 271.538V206.631" stroke="#231F20" stroke-width="0.75" stroke-miterlimit="10"/>
<path d="M489.506 197.13V209.153C489.506 212.6 496.405 215.374 504.818 215.374C513.316 215.374 520.131 212.6 520.131 209.153V197.13C520.131 193.683 513.232 190.908 504.818 190.908C496.321 190.908 489.506 193.683 489.506 197.13Z" fill="#B1FF05" stroke="#001E2B" stroke-width="0.75" stroke-miterlimit="10"/>
<path d="M512.222 191.665L509.277 215.122C515.587 214.366 520.131 212.012 520.131 209.153V197.13C520.131 194.776 516.934 192.758 512.222 191.665Z" fill="#001E2B" stroke="#001E2B" stroke-width="0.75" stroke-miterlimit="10"/>
<path d="M421.946 105.403V170.31C421.946 188.89 459.049 203.94 504.818 203.94C550.587 203.94 587.69 188.89 587.69 170.31V105.403C587.69 86.8217 550.587 71.772 504.818 71.772C459.049 71.772 421.946 86.8217 421.946 105.403Z" fill="#00ED64"/>
<path d="M587.69 105.403C587.69 86.8217 550.587 71.772 504.818 71.772C459.049 71.772 421.946 86.8217 421.946 105.403" stroke="#231F20" stroke-width="0.75" stroke-miterlimit="10"/>
<path d="M587.69 105.403V170.31C587.69 188.89 550.587 203.94 504.818 203.94C459.049 203.94 421.946 188.89 421.946 170.31V105.403" stroke="#231F20" stroke-width="0.75" stroke-miterlimit="10"/>
<path d="M587.69 137.856C587.69 156.437 550.587 171.487 504.818 171.487C459.049 171.487 421.946 156.437 421.946 137.856" stroke="#231F20" stroke-width="0.75" stroke-miterlimit="10"/>
<path d="M587.69 239.084C587.69 257.665 550.587 272.715 504.818 272.715C459.049 272.715 421.946 257.665 421.946 239.084" stroke="#231F20" stroke-width="0.75" stroke-miterlimit="10"/>
<path d="M571.536 85.4763V190.236C581.632 184.687 587.69 177.792 587.69 170.309V105.402C587.69 98.0037 581.716 91.1094 571.536 85.4763Z" fill="#001E2B" stroke="#001E2B" stroke-width="0.75" stroke-miterlimit="10"/>
<path d="M504.818 139.033C550.587 139.033 587.69 123.976 587.69 105.403C587.69 86.8289 550.587 71.772 504.818 71.772C459.049 71.772 421.946 86.8289 421.946 105.403C421.946 123.976 459.049 139.033 504.818 139.033Z" fill="white" stroke="#231F20" stroke-width="0.75" stroke-miterlimit="10"/>
<path d="M176.444 206.547C208.04 206.547 233.655 180.95 233.655 149.375C233.655 117.799 208.04 92.2026 176.444 92.2026C144.846 92.2026 119.232 117.799 119.232 149.375C119.232 180.95 144.846 206.547 176.444 206.547Z" fill="white" stroke="#001E2B" stroke-width="0.75" stroke-miterlimit="10"/>
<path d="M131.937 150.299V185.275C151.708 209.741 187.549 213.777 212.2 194.103C236.852 174.429 240.89 138.444 221.203 113.81C219.099 111.204 216.828 108.765 214.388 106.664H175.686L131.937 150.299Z" fill="white" stroke="#001E2B" stroke-width="0.75" stroke-miterlimit="10"/>
<path d="M175.687 150.299H138.668V192.338C159.113 210.33 190.074 211.675 212.117 194.103C236.768 174.429 240.807 138.445 221.119 113.81C221.119 113.81 221.119 113.726 221.035 113.726H175.603V150.299H175.687Z" fill="#00ED64" stroke="#001E2B" stroke-width="0.75" stroke-miterlimit="10"/>
<path d="M131.937 150.299L175.686 106.58V150.299H131.937Z" fill="white" stroke="#231F20" stroke-width="0.75" stroke-miterlimit="10" stroke-linejoin="round"/>
<path d="M170.806 150.299L173.835 159.884L131.937 150.299H170.806Z" fill="#001E2B"/>
<path d="M230.374 130.205H175.687V134.745H231.804C231.383 133.232 230.878 131.718 230.374 130.205Z" fill="#00ED64" stroke="#001E2B" stroke-width="0.75" stroke-miterlimit="10"/>
<path d="M233.655 150.299H187.634C186.456 150.299 185.446 151.224 185.446 152.485V152.738C185.446 153.915 186.372 154.924 187.634 154.924H233.403C233.571 153.326 233.655 151.813 233.655 150.299Z" fill="#00ED64" stroke="#001E2B" stroke-width="0.75" stroke-miterlimit="10"/>
<path d="M228.691 172.664H156.841C155.663 172.664 154.653 173.589 154.653 174.85V175.102C154.653 176.279 155.579 177.288 156.841 177.288H226.335C227.261 175.775 228.018 174.177 228.691 172.664Z" fill="#00ED64" stroke="#001E2B" stroke-width="0.75" stroke-miterlimit="10"/>
<path d="M179.725 195.028C178.547 195.028 177.537 195.953 177.537 197.214V197.466C177.537 198.643 178.463 199.652 179.725 199.652H203.703C206.143 198.307 208.498 196.794 210.77 195.112H179.725V195.028Z" fill="#00ED64" stroke="#001E2B" stroke-width="0.75" stroke-miterlimit="10"/>
<path d="M92.3937 339.892C92.3937 339.892 91.1317 343.087 99.2926 346.282C107.454 349.476 108.716 346.197 108.716 346.197L159.028 217.981C159.028 217.981 159.364 214.618 152.129 211.759C144.893 208.901 142.79 211.591 142.79 211.591L92.3937 339.892Z" fill="#FFE212" stroke="#001F2C" stroke-width="0.75" stroke-miterlimit="10"/>
<path d="M154.989 213.188L102.405 347.29C107.706 348.552 108.631 346.281 108.631 346.281L158.943 218.065C158.943 217.981 159.112 215.627 154.989 213.188Z" fill="#001F2C"/>
<path d="M140.771 213.609C140.771 213.609 140.686 217.308 148.427 220.419C156.167 223.53 158.691 220.924 158.691 220.924L164.496 206.799C164.496 206.799 161.636 206.547 155.242 203.94C148.847 201.334 146.576 199.484 146.576 199.484L140.771 213.609Z" fill="#FFE212" stroke="#001F2C" stroke-width="0.75" stroke-miterlimit="10"/>
<path d="M194.701 97.3313C225.494 109.943 240.217 145.087 227.682 175.859C215.061 206.631 179.893 221.344 149.1 208.817C118.307 196.289 103.584 161.061 116.12 130.289C128.656 99.5173 163.908 84.7198 194.701 97.3313ZM121.925 132.643C110.651 160.22 123.86 191.665 151.456 202.931C179.052 214.198 210.518 200.998 221.792 173.42C233.066 145.843 219.857 114.399 192.261 103.133C164.665 91.8663 133.199 105.066 121.925 132.643Z" fill="#001F2C"/>
<path d="M194.701 97.3313C225.494 109.943 240.217 145.087 227.682 175.859C215.061 206.631 179.893 221.344 149.1 208.817C118.307 196.289 103.584 161.061 116.12 130.289C128.656 99.5173 163.908 84.7198 194.701 97.3313ZM121.925 132.643C110.651 160.22 123.86 191.665 151.456 202.931C179.052 214.198 210.518 200.998 221.792 173.42C233.066 145.843 219.857 114.399 192.261 103.133C164.665 91.8663 133.199 105.066 121.925 132.643Z" fill="#001F2C"/>
<path d="M199.244 93.6319C230.037 106.243 244.761 141.387 232.225 172.159C219.604 202.931 184.436 217.645 153.643 205.117C122.85 192.59 108.127 157.362 120.663 126.59C133.199 95.8179 168.451 81.1045 199.244 93.6319ZM126.552 129.028C115.278 156.605 128.487 188.05 156.083 199.316C183.679 210.582 215.145 197.382 226.419 169.805C237.693 142.228 224.484 110.784 196.888 99.5173C169.292 88.251 137.826 101.451 126.552 129.028Z" fill="#FFE212"/>
<path d="M199.244 93.6319C230.037 106.243 244.761 141.387 232.225 172.159C219.604 202.931 184.436 217.645 153.643 205.117C122.85 192.59 108.127 157.362 120.663 126.59C133.199 95.8179 168.451 81.1045 199.244 93.6319ZM126.552 129.028C115.278 156.605 128.487 188.05 156.083 199.316C183.679 210.582 215.145 197.382 226.419 169.805C237.693 142.228 224.484 110.784 196.888 99.5173C169.292 88.251 137.826 101.451 126.552 129.028Z" fill="#FFE212" stroke="#001F2C" stroke-width="0.75" stroke-miterlimit="10"/>
<path d="M157.093 206.631L151.035 221.428C151.035 221.428 156.504 223.026 158.691 220.924L163.739 208.48L157.093 206.631Z" fill="#001F2C"/>
<path d="M120.158 94.1364C150.699 63.6166 200.254 63.6166 230.794 94.1364" stroke="#001E2B" stroke-width="0.75" stroke-miterlimit="10" stroke-dasharray="2 2"/>
<path d="M106.191 80.1796C144.472 41.9248 206.479 41.9248 244.676 80.1796" stroke="#001E2B" stroke-width="0.75" stroke-miterlimit="10" stroke-dasharray="2 2"/>
<path d="M554.962 45.9604L560.599 58.1515L566.152 70.3426L552.775 69.0815L539.481 67.8203L547.222 56.8904L554.962 45.9604Z" fill="white" stroke="#001E2B" stroke-width="0.75" stroke-miterlimit="10"/>
<path d="M553.616 60.926L539.481 67.8203L566.152 70.3426L553.616 60.926Z" fill="#001E2B"/>
<path d="M553.616 60.9261L554.962 45.9604" stroke="#001E2B" stroke-width="0.75" stroke-miterlimit="10"/>
<path d="M514.578 75.1351L506.838 86.0651L520.131 87.3262L533.424 88.5874L527.871 76.3122L526.273 72.9492C523.16 72.6129 519.879 72.3606 516.597 72.1084L514.578 75.1351Z" fill="#001E2B" stroke="#001E2B" stroke-width="0.75" stroke-miterlimit="10"/>
<path d="M186.119 357.043C197.875 357.043 207.405 347.52 207.405 335.772C207.405 324.024 197.875 314.501 186.119 314.501C174.363 314.501 164.833 324.024 164.833 335.772C164.833 347.52 174.363 357.043 186.119 357.043Z" fill="#FFC010" stroke="#001E2B" stroke-width="0.75" stroke-miterlimit="10"/>
<path d="M186.119 324.085V347.459" stroke="#001E2B" stroke-width="0.75" stroke-miterlimit="10"/>
<path d="M197.814 335.772H174.425" stroke="#001E2B" stroke-width="0.75" stroke-miterlimit="10"/>
<path d="M403.183 327.332L397.948 322.1L376.65 343.383L381.885 348.615L403.183 327.332Z" fill="#FFC010" stroke="#001E2B" stroke-width="0.75" stroke-miterlimit="10"/>
<path d="M407.218 323.356L401.983 318.124L397.938 322.167L403.173 327.398L407.218 323.356Z" fill="#FFC010" stroke="#001E2B" stroke-width="0.75" stroke-miterlimit="10"/>
<path d="M371.719 353.512L376.599 343.423L381.899 348.636L371.719 353.512Z" fill="#FFC010" stroke="#001E2B" stroke-width="0.75" stroke-miterlimit="10"/>
<path d="M290.445 180.399H269.496V211.423H290.445V180.399Z" stroke="#001F2C" stroke-width="0.75" stroke-miterlimit="10"/>
<path d="M306.178 196.121H285.229V227.145H306.178V196.121Z" stroke="#001F2C" stroke-width="0.75" stroke-miterlimit="10"/>
</svg>
