<svg xmlns="http://www.w3.org/2000/svg" width="96" height="96" fill="none"><g clip-path="url(#a)"><path fill="#C6FF00" d="M31.364 74.345a9.405 9.405 0 0 0-18.81 0l.001 5.29a4.114 4.114 0 0 0 4.114 4.115h5.29a9.405 9.405 0 0 0 9.405-9.405Z"/><path fill="#fff" stroke="#4285F4" stroke-width="4" d="m43.798 54.24-9.605 9.605a8.021 8.021 0 0 1-11.345 0l-9.26-9.26a8.022 8.022 0 0 1 0-11.345l9.605-9.605a14.57 14.57 0 0 1 11.84-4.186c12.182 1.292 17.427 16.128 8.765 24.79Z"/><path fill="#fff" stroke="#4285F4" stroke-width="4" d="m42.059 52.5-9.605 9.605a8.022 8.022 0 0 0 0 11.344l9.26 9.26a8.022 8.022 0 0 0 11.344 0l9.605-9.605a14.57 14.57 0 0 0 4.187-11.84C65.557 49.084 50.72 43.838 42.059 52.5Z"/><path fill="#34A853" d="m45.715 27.155 23.433 23.433L42.69 77.045c-3.914 3.914-10.259 3.914-14.173 0l-9.26-9.26c-3.914-3.914-3.914-10.26 0-14.173l26.457-26.457Z"/><path fill="#CEEAD6" d="M51.182 21.688 74.615 45.12l-2.828 2.828-23.433-23.433 2.828-2.828Z"/><path fill="#4285F4" d="M51.116 21.621a31.461 31.461 0 0 1 20.924-9.026l3.45-.126c4.677-.172 8.514 3.665 8.343 8.342l-.127 3.45a31.461 31.461 0 0 1-9.026 20.924L51.116 21.621Z"/><path stroke="#202124" stroke-width="4" d="M46.5 26.38 69.928 49.81"/><path stroke="#202124" stroke-linecap="round" stroke-width="4" d="M32 70.773 61.273 41.5"/></g><defs><clipPath id="a"><path fill="#fff" d="M0 0h96v96H0z"/></clipPath></defs></svg>