<?xml version="1.0" encoding="utf-8"?>
<svg xmlns="http://www.w3.org/2000/svg" width="696" height="533" viewBox="0 0 696 533" fill="none">
<path d="M639.138 133.188L639.138 332.971C639.132 350.631 632.113 367.566 619.626 380.054C607.138 392.541 590.203 399.559 572.543 399.565C554.883 399.572 537.949 406.59 525.461 419.077C512.974 431.565 505.955 448.5 505.949 466.16C505.949 483.822 498.933 500.76 486.444 513.249C473.955 525.738 457.017 532.754 439.355 532.754C421.693 532.754 404.755 525.738 392.266 513.249C379.777 500.76 372.761 483.822 372.761 466.16L372.761 399.565C372.748 364.245 358.712 330.376 333.737 305.401C308.762 280.426 274.892 266.389 239.572 266.377C204.248 266.377 170.371 252.345 145.394 227.367C120.416 202.389 106.384 168.512 106.384 133.188C106.384 97.8647 120.416 63.9877 145.394 39.01C170.371 14.0323 204.248 1.90096e-05 239.572 1.74656e-05L505.949 5.82185e-06C541.269 0.0123367 575.139 14.0486 600.114 39.0236C625.089 63.9986 639.125 97.8685 639.138 133.188V133.188Z" fill="#00684A"/>
<path d="M269.14 390.592L152.787 427.36L103.16 269.945L187.451 243.309L199.062 283.009L230.077 266.706L269.14 390.592Z" fill="#FFEEA9" stroke="black" stroke-width="1.21756" stroke-linecap="round" stroke-linejoin="round"/>
<path d="M187.45 243.309L230.077 266.706L199.061 283.009L187.45 243.309Z" fill="#FEFAE9" stroke="black" stroke-width="1.21756" stroke-linecap="round" stroke-linejoin="round"/>
<path d="M207.595 278.521L210.048 286.98L230.076 266.706L207.595 278.521Z" fill="#00202D"/>
<path d="M229.568 411.988V433.881C229.568 457.225 276.118 476.154 333.549 476.154C390.98 476.154 437.529 457.225 437.529 433.881V411.988H229.568Z" fill="black" stroke="black" stroke-width="1.21756" stroke-linecap="round" stroke-linejoin="round"/>
<path d="M229.568 341.808V423.432C229.568 446.776 276.118 465.705 333.549 465.705C390.98 465.705 437.529 446.776 437.529 423.432V341.808C437.529 318.465 390.98 299.546 333.549 299.546C276.118 299.546 229.568 318.465 229.568 341.808Z" fill="#00ED64" stroke="black" stroke-width="1.21756" stroke-linecap="round" stroke-linejoin="round"/>
<path d="M437.529 341.809V423.432C437.529 446.776 390.98 465.705 333.549 465.705C276.118 465.705 229.568 446.776 229.568 423.432V341.809" stroke="black" stroke-width="1.21756" stroke-linecap="round" stroke-linejoin="round"/>
<path d="M437.529 383.52C437.529 406.864 390.98 425.782 333.549 425.782C276.118 425.782 229.568 406.864 229.568 383.52" stroke="black" stroke-width="1.21756" stroke-linecap="round" stroke-linejoin="round"/>
<path d="M417.29 316.76V448.47C430.011 441.462 437.53 432.802 437.53 423.422V341.819C437.53 332.45 430.011 323.779 417.29 316.771V316.76Z" fill="black" stroke="black" stroke-width="1.21756" stroke-linecap="round" stroke-linejoin="round"/>
<path d="M333.538 384.092C390.969 384.092 437.519 365.173 437.519 341.819C437.519 318.465 390.959 299.546 333.538 299.546C276.118 299.546 229.558 318.475 229.558 341.819C229.558 365.163 276.107 384.092 333.538 384.092Z" fill="white" stroke="black" stroke-width="1.21756" stroke-linecap="round" stroke-linejoin="round"/>
<path d="M314.303 329.845V344.931C314.303 349.24 322.911 352.755 333.549 352.755C344.187 352.755 352.794 349.251 352.794 344.931V329.845C352.794 325.537 344.187 322.022 333.549 322.022C322.911 322.022 314.303 325.526 314.303 329.845Z" fill="#B1FF05" stroke="black" stroke-width="1.21756" stroke-linecap="round" stroke-linejoin="round"/>
<path d="M342.791 322.985L339.122 352.437C347.011 351.463 352.785 348.478 352.785 344.953V329.866C352.785 326.892 348.745 324.308 342.781 322.985H342.791Z" fill="black" stroke="black" stroke-width="1.21756" stroke-linecap="round" stroke-linejoin="round"/>
<path d="M437.529 221.712C437.529 198.369 390.98 179.439 333.549 179.439C276.118 179.439 229.568 198.369 229.568 221.712" stroke="black" stroke-width="1.21756" stroke-linecap="round" stroke-linejoin="round"/>
<path d="M229.568 214.524V296.137C229.568 319.481 276.118 338.41 333.549 338.41C390.98 338.41 437.529 319.481 437.529 296.137V214.524C437.529 191.18 390.98 172.251 333.549 172.251C276.118 172.251 229.568 191.18 229.568 214.524Z" fill="#00ED64" stroke="black" stroke-width="1.21756" stroke-linecap="round" stroke-linejoin="round"/>
<path d="M417.29 189.465V321.196C430.011 314.187 437.53 305.517 437.53 296.137V214.524C437.53 205.144 430.011 196.473 417.29 189.465Z" fill="black" stroke="black" stroke-width="1.21756" stroke-linecap="round" stroke-linejoin="round"/>
<path d="M333.538 256.797C390.969 256.797 437.519 237.878 437.519 214.524C437.519 191.17 390.959 172.251 333.538 172.251C276.118 172.251 229.558 191.18 229.558 214.524C229.558 237.868 276.107 256.797 333.538 256.797Z" fill="white" stroke="black" stroke-width="1.21756" stroke-linecap="round" stroke-linejoin="round"/>
<path d="M437.529 214.524V296.137C437.529 319.481 390.98 338.41 333.549 338.41C276.118 338.41 229.568 319.481 229.568 296.137V214.524" stroke="black" stroke-width="1.21756" stroke-linecap="round" stroke-linejoin="round"/>
<path d="M314.303 202.55V217.636C314.303 221.945 322.911 225.46 333.549 225.46C344.187 225.46 352.794 221.966 352.794 217.636V202.55C352.794 198.241 344.187 194.727 333.549 194.727C322.911 194.727 314.303 198.22 314.303 202.55Z" fill="#B1FF05" stroke="black" stroke-width="1.21756" stroke-linecap="round" stroke-linejoin="round"/>
<path d="M342.791 195.69L339.122 225.142C347.011 224.168 352.785 221.183 352.785 217.647V202.561C352.785 199.586 348.745 197.013 342.781 195.69H342.791Z" fill="black" stroke="black" stroke-width="1.21756" stroke-linecap="round" stroke-linejoin="round"/>
<path d="M229.568 87.2392V168.853C229.568 192.196 276.118 211.115 333.549 211.115C390.98 211.115 437.529 192.196 437.529 168.853V87.2392C437.529 63.8954 390.98 44.9663 333.549 44.9663C276.118 44.9663 229.568 63.8954 229.568 87.2392Z" fill="#00ED64" stroke="black" stroke-width="1.21756" stroke-linecap="round" stroke-linejoin="round"/>
<path d="M437.529 87.2392C437.529 63.8954 390.98 44.9663 333.549 44.9663C276.118 44.9663 229.568 63.8954 229.568 87.2392" stroke="black" stroke-width="1.21756" stroke-linecap="round" stroke-linejoin="round"/>
<path d="M437.529 87.2285V168.852C437.529 192.196 390.98 211.115 333.549 211.115C276.118 211.115 229.568 192.196 229.568 168.852V87.2285" stroke="black" stroke-width="1.21756" stroke-linecap="round" stroke-linejoin="round"/>
<path d="M437.529 128.041C437.529 151.384 390.98 170.303 333.549 170.303C276.118 170.303 229.568 151.384 229.568 128.041" stroke="black" stroke-width="1.21756" stroke-linecap="round" stroke-linejoin="round"/>
<path d="M437.529 255.325C437.529 278.669 390.98 297.598 333.549 297.598C276.118 297.598 229.568 278.669 229.568 255.325" stroke="black" stroke-width="1.21756" stroke-linecap="round" stroke-linejoin="round"/>
<path d="M417.29 62.1804V193.901C430.011 186.892 437.53 178.222 437.53 168.853V87.2393C437.53 77.87 430.011 69.1994 417.29 62.191V62.1804Z" fill="black" stroke="black" stroke-width="1.21756" stroke-linecap="round" stroke-linejoin="round"/>
<path d="M333.538 129.502C390.969 129.502 437.519 110.572 437.519 87.2286C437.519 63.8848 390.969 44.9663 333.538 44.9663C276.107 44.9663 229.558 63.8954 229.558 87.2392C229.558 110.583 276.107 129.512 333.538 129.512V129.502Z" fill="white" stroke="black" stroke-width="1.21756" stroke-linecap="round" stroke-linejoin="round"/>
<path d="M550.299 338.007L412.638 304.426L457.961 118.184L557.69 142.512L545.371 188.935L585.967 191.434L550.299 338.007Z" fill="#FFEEA9" stroke="black" stroke-width="1.21756" stroke-linecap="round" stroke-linejoin="round"/>
<path d="M557.691 142.512L585.967 191.434L545.371 188.935L557.691 142.512Z" fill="#FEFAE9" stroke="black" stroke-width="1.21756" stroke-linecap="round" stroke-linejoin="round"/>
<path d="M556.537 189.624L553.894 199.501L585.966 191.434L556.537 189.624Z" fill="black"/>
<path d="M562.438 288.663L550.636 337.161L541.045 334.821L541.785 320.539C542.081 314.621 543.075 310.101 544.767 306.957C546.702 303.569 549.515 300.774 552.899 298.847C548.976 296.317 546.279 293.681 544.831 290.96C543.403 288.26 542.473 285.339 542.071 282.311C541.68 279.283 541.352 272.74 541.098 262.693C541.013 259.041 540.379 256.596 539.173 255.336C537.968 254.076 534.351 253.462 528.292 253.472V238.439H531.634C537.46 238.439 541.954 238.947 545.127 239.964C548.141 240.874 550.837 242.61 552.92 244.961C554.993 247.396 556.304 250.37 556.717 253.547C557.245 256.955 557.499 262.217 557.478 269.3C557.478 278.605 558.62 284.597 560.936 287.244C561.391 287.774 561.898 288.25 562.448 288.673L562.438 288.663Z" fill="black" stroke="black" stroke-width="1.21756" stroke-linecap="round" stroke-linejoin="round"/>
<path d="M632.382 209.241C629.696 212.375 627.771 216.091 626.777 220.103C625.794 224.063 625.318 233.104 625.318 247.237C625.318 260.057 623.964 269.353 621.257 275.101C618.656 280.776 613.971 285.222 608.176 287.52C602.159 290.029 593.604 291.288 582.522 291.288H577.118V266.367C585.568 266.367 590.971 265.626 593.319 264.133C594.482 263.403 595.476 262.44 596.248 261.296C597.02 260.153 597.538 258.872 597.781 257.517L599.346 227.27C599.833 217.499 601.472 210.014 604.274 204.816C607.478 199.215 612.121 194.578 617.736 191.402C611.222 187.221 606.77 182.869 604.39 178.359C602.032 173.902 600.478 169.064 599.812 164.057C599.167 159.039 598.627 148.219 598.204 131.608C598.067 125.585 596.957 121.572 595.032 119.455C593.118 117.327 587.048 116.332 577.013 116.332V91.4316H582.512C592.134 91.4316 599.579 92.268 604.845 93.9407C609.815 95.4546 614.278 98.313 617.725 102.209C621.141 106.232 623.309 111.165 623.996 116.395C625.011 125.034 625.434 133.736 625.254 142.439C625.254 157.832 627.158 167.73 630.954 172.134C634.75 176.539 640.439 178.772 648 178.836V203.789C640.344 204.159 635.142 205.97 632.371 209.23L632.382 209.241Z" fill="#FFE212" stroke="black" stroke-width="1.21756" stroke-linecap="round" stroke-linejoin="round"/>
<path d="M68.9061 302.85C72.0573 305.168 74.6164 308.186 76.3929 311.669C78.1378 315.109 80.5171 323.346 83.5308 336.378C86.2697 348.203 89.5055 356.482 93.2278 361.204C96.8337 365.873 102.11 368.975 107.948 369.864C114.028 370.891 122.181 370.213 132.407 367.842L137.388 366.688L132.068 343.704C124.275 345.514 119.136 345.98 116.651 345.112C115.424 344.689 114.292 344.011 113.341 343.122C112.389 342.232 111.628 341.163 111.12 339.967L103.221 312.41C100.693 303.506 97.574 296.953 93.8834 292.75C89.7382 288.272 84.4614 284.99 78.603 283.264C83.7212 278.013 86.8936 273.048 88.1308 268.379C89.3575 263.763 89.7487 258.968 89.294 254.214C88.8182 249.45 87.0099 239.361 83.8481 223.947C82.6849 218.367 82.8646 214.429 84.1759 212.058C85.4871 209.686 90.8696 207.463 100.133 205.314L94.814 182.351L89.7382 183.526C80.866 185.591 74.1723 187.952 69.678 190.62C65.4165 193.086 61.9162 196.675 59.5581 201.005C57.274 205.452 56.3117 210.459 56.8087 215.435C57.7181 223.618 59.188 231.739 61.2077 239.721C64.4965 253.918 64.856 263.456 62.2864 268.326C59.7167 273.207 54.9581 276.478 48 278.151L53.3296 301.166C60.4675 299.864 65.6597 300.425 68.9061 302.839V302.85Z" fill="#FFE212" stroke="black" stroke-width="1.21756" stroke-linecap="round" stroke-linejoin="round"/>
<path d="M163.425 354.142C165.212 355.455 166.671 357.17 167.676 359.149C168.67 361.097 170.013 365.777 171.726 373.166C173.281 379.878 175.11 384.568 177.225 387.257C179.276 389.904 182.269 391.672 185.579 392.17C189.026 392.752 193.658 392.371 199.463 391.026L202.287 390.37L199.273 377.327C194.853 378.354 191.934 378.618 190.528 378.121C189.83 377.877 189.195 377.496 188.656 376.999C188.117 376.491 187.683 375.887 187.398 375.21L182.914 359.573C181.476 354.523 179.71 350.807 177.616 348.425C175.269 345.884 172.265 344.021 168.945 343.036C171.853 340.061 173.651 337.245 174.349 334.588C175.047 331.973 175.269 329.252 175.015 326.553C174.75 323.843 173.714 318.126 171.927 309.381C171.271 306.216 171.367 303.982 172.117 302.637C172.868 301.293 175.914 300.033 181.169 298.815L178.155 285.783L175.279 286.45C170.246 287.615 166.449 288.959 163.901 290.473C161.479 291.871 159.502 293.903 158.159 296.359C156.858 298.879 156.319 301.727 156.604 304.543C157.123 309.191 157.958 313.796 159.1 318.327C160.961 326.383 161.173 331.793 159.713 334.556C158.254 337.32 155.557 339.183 151.603 340.136L154.627 353.189C158.677 352.448 161.617 352.766 163.467 354.142H163.425Z" fill="black" stroke="black" stroke-width="1.21756" stroke-linecap="round" stroke-linejoin="round"/>
<path d="M477.386 368.423L490.562 376.903L503.738 385.394L489.811 392.572L475.874 399.75L476.635 384.092L477.386 368.423Z" fill="white" stroke="black" stroke-width="1.21756" stroke-linecap="round" stroke-linejoin="round"/>
<path d="M485.434 384.07L475.874 399.749L503.738 385.394L485.434 384.07Z" fill="black"/>
<path d="M485.434 384.071L477.387 368.423" stroke="black" stroke-width="1.21756" stroke-linecap="round" stroke-linejoin="round"/>
<path d="M162.6 176.846C171.08 176.846 177.955 169.963 177.955 161.474C177.955 152.984 171.08 146.102 162.6 146.102C154.12 146.102 147.246 152.984 147.246 161.474C147.246 169.963 154.12 176.846 162.6 176.846Z" fill="white" stroke="black" stroke-width="1.21756" stroke-linecap="round" stroke-linejoin="round"/>
<path d="M153.961 174.178C156.425 175.861 159.396 176.846 162.6 176.846C171.081 176.846 177.955 169.964 177.955 161.474C177.955 158.266 176.971 155.291 175.29 152.824C169.876 161.442 162.569 168.757 153.961 174.178Z" fill="black" stroke="black" stroke-width="1.21756" stroke-linecap="round" stroke-linejoin="round"/>
<path d="M508.168 53.1182H490.435L481.573 68.4901L490.435 83.8515H508.168L517.03 68.4901L508.168 53.1182Z" fill="white" stroke="black" stroke-width="1.21756" stroke-linecap="round" stroke-linejoin="round"/>
<path d="M490.435 83.8516H508.168L499.307 68.4902H481.573L490.435 83.8516Z" fill="black" stroke="black" stroke-width="0.304391" stroke-linecap="round" stroke-linejoin="round"/>
<path d="M508.168 53.1182L499.307 68.4901" stroke="black" stroke-width="1.21756" stroke-linecap="round" stroke-linejoin="round"/>
</svg>