<svg xmlns="http://www.w3.org/2000/svg" width="97" height="96" fill="none"><g clip-path="url(#a)"><mask id="b" width="97" height="96" x="0" y="0" maskUnits="userSpaceOnUse" style="mask-type:luminance"><path fill="#fff" d="M.5 0h96v96H.5V0Z"/></mask><g mask="url(#b)"><path fill="red" d="M94.874 24.817a12.07 12.07 0 0 0-8.521-8.52C78.83 14.28 48.69 14.28 48.69 14.28s-30.14 0-37.654 2.016a12.07 12.07 0 0 0-8.52 8.52C.5 32.331.5 48.017.5 48.017S.5 63.7 2.515 71.214a12.07 12.07 0 0 0 8.521 8.52c7.514 2.016 37.654 2.016 37.654 2.016s30.141 0 37.655-2.015a12.07 12.07 0 0 0 8.52-8.521c2.016-7.514 2.016-23.199 2.016-23.199s0-15.685-2.015-23.199h.008Z"/><path fill="#fff" d="m39.05 62.472 25.048-14.456-25.047-14.455v28.91Z"/></g></g><defs><clipPath id="a"><path fill="#fff" d="M.5 0h96v96H.5z"/></clipPath></defs></svg>