<svg xmlns="http://www.w3.org/2000/svg" width="97" height="96" fill="none"><path fill="#0A66C2" d="M84.494 84H69.586V60.613c0-5.576-.099-12.755-7.753-12.755-7.764 0-8.952 6.076-8.952 12.35v23.79H37.973V35.906h14.311v6.572h.2a15.697 15.697 0 0 1 5.989-5.84 15.662 15.662 0 0 1 8.132-1.93c15.11.002 17.895 9.959 17.895 22.91L84.494 84ZM21.153 29.332a8.64 8.64 0 0 1-4.807-1.46 8.663 8.663 0 0 1-3.68-8.895 8.647 8.647 0 0 1 15.677-3.128 8.677 8.677 0 0 1-1.074 10.944 8.65 8.65 0 0 1-6.116 2.539ZM28.606 84H13.683V35.906h14.923V84Z"/></svg>