<svg width="18" height="18" fill="none" xmlns="http://www.w3.org/2000/svg"><path fill-rule="evenodd" clip-rule="evenodd" d="M0 4.851c1.99 1.061 5.28 1.755 9 1.755 3.72 0 7.01-.694 9-1.755v1.92c0 1.368-4.03 2.477-9 2.477S0 8.138 0 6.77V4.85zm18 4.294v2.04c0 1.301-4.03 2.356-9 2.356s-9-1.055-9-2.356v-2.04c1.99 1.06 5.28 1.754 9 1.754 3.72 0 7.01-.693 9-1.754zm0 4.293v2.085C18 16.89 13.97 18 9 18s-9-1.109-9-2.477v-2.085c1.99 1.061 5.28 1.755 9 1.755 3.72 0 7.01-.694 9-1.755zM9 4.954c-4.97 0-9-1.109-9-2.477C0 1.11 4.03 0 9 0s9 1.109 9 2.477c0 1.368-4.03 2.477-9 2.477z" fill="#4CA6FF"/></svg>