<svg xmlns="http://www.w3.org/2000/svg" width="480" height="480" fill="none"><path fill="#CEEAD6" d="M241.855 103.643a25.335 25.335 0 0 1 22.533 0l21.584 10.723a25.307 25.307 0 0 0 9.757 2.598l27.303 1.628c7.915.472 15.145 4.62 19.514 11.195l14.459 21.76a25.12 25.12 0 0 0 7.142 7.097l18.262 11.98c6.617 4.342 10.791 11.525 11.267 19.39l1.64 27.156a24.919 24.919 0 0 0 2.614 9.695l9.531 18.94a24.886 24.886 0 0 1 0 22.39l-8.119 16.135a24.897 24.897 0 0 0-2.614 9.695l-1.81 29.957c-.475 7.865-4.649 15.048-11.267 19.39l-22.654 14.862a25.11 25.11 0 0 0-7.143 7.097l-12.546 18.882c-4.37 6.575-11.599 10.723-19.515 11.195l-25.895 1.544a25.325 25.325 0 0 0-9.757 2.598l-21.753 10.807a25.335 25.335 0 0 1-22.533 0l-22.267-11.062a25.325 25.325 0 0 0-9.757-2.598l-21.621-1.289c-7.916-.472-15.145-4.62-19.515-11.195l-12.542-18.875a25.114 25.114 0 0 0-7.143-7.098l-22.658-14.864c-6.617-4.342-10.791-11.525-11.266-19.39l-1.297-21.466a24.914 24.914 0 0 0-2.614-9.695l-12.394-24.63a24.89 24.89 0 0 1 0-22.39l13.8-27.425a24.898 24.898 0 0 0 2.615-9.695l1.127-18.667c.475-7.865 4.65-15.048 11.267-19.39l18.258-11.978a25.11 25.11 0 0 0 7.143-7.097l14.463-21.766c4.369-6.575 11.599-10.723 19.514-11.195L210 117.219a25.315 25.315 0 0 0 9.757-2.598l22.098-10.978Z"/><path fill="#fff" d="M264 262.508c0-15.164-12.293-27.457-27.458-27.457H76.372c-15.164 0-27.457 12.293-27.457 27.457v86.034C48.915 363.707 61.21 376 76.373 376h160.169C251.707 376 264 363.707 264 348.542v-86.034Z"/><path stroke="#174EA6" stroke-linecap="round" stroke-width="3.661" d="m203.135 300.397 51.255 66.59M108.405 299.95 57.15 366.093M261.396 259.22l-88.194 62.463a27.458 27.458 0 0 1-31.694.032L52.889 259.22"/><path stroke="#A0C2F9" stroke-linecap="round" stroke-width="3.661" d="M156.456 376H76.177c-15.089 0-27.35-12.175-27.457-27.263l-.63-88.76a22.191 22.191 0 0 1 11.349-19.519v0"/><path fill="#4285F4" d="M197 126h235v124c0 16.569-13.431 30-30 30H227c-16.569 0-30-13.431-30-30V126Z"/><path fill="#174EA6" d="M297.473 56.738a30 30 0 0 1 34.054 0L432 126H197l100.473-69.262Z"/><path fill="#174EA6" stroke="#174EA6" stroke-width="3" d="m267.314 192.408-66.628-65h227.628l-66.628 65h-94.372Z"/><path stroke="#174EA6" stroke-linecap="round" stroke-width="3" d="m268 192-60.5 79.908M362 192l61 78.908"/><mask id="a" width="228" height="148" x="201" y="48" maskUnits="userSpaceOnUse" style="mask-type:alpha"><path fill="#174EA6" d="m201 128.751 114-79.843 114 79.843-67.627 67.157h-92.746L201 128.751Z"/></mask><g mask="url(#a)"><path fill="#34A853" d="M394.991 189.292a78.624 78.624 0 0 0-1.402-6.959 79.572 79.572 0 0 0-3.211-10.039 80.113 80.113 0 0 0-3.688-8.021 81.077 81.077 0 0 0-14.927-20.004 81.985 81.985 0 0 0-14.459-11.305c.032-.051.06-.106.092-.157 1.643-2.802 3.291-5.6 4.934-8.402l4.824-8.205c1.155-1.963 2.31-3.93 3.462-5.893a7.316 7.316 0 0 0 .42-6.584 7.373 7.373 0 0 0-3.068-3.475 7.622 7.622 0 0 0-4.598-1 7.495 7.495 0 0 0-4.763 2.367 7.397 7.397 0 0 0-.945 1.274 4514.79 4514.79 0 0 0-3.462 5.893l-4.823 8.206c-1.644 2.801-3.291 5.599-4.935 8.401-.179.306-.361.611-.54.921-.25-.098-.496-.196-.746-.29-9.063-3.409-18.897-5.274-29.175-5.274-.282 0-.56 0-.842.003a82.795 82.795 0 0 0-26.11 4.471c-.948.326-1.885.671-2.814 1.031-.167-.286-.338-.572-.504-.858-1.644-2.802-3.291-5.6-4.935-8.401l-4.823-8.206c-1.156-1.963-2.311-3.93-3.462-5.893a7.45 7.45 0 0 0-.945-1.274 7.493 7.493 0 0 0-4.764-2.367 7.685 7.685 0 0 0-1.409-.011 7.506 7.506 0 0 0-3.188 1.011 7.398 7.398 0 0 0-3.069 3.475 7.313 7.313 0 0 0 .421 6.583c1.155 1.964 2.311 3.931 3.462 5.894l4.823 8.205c1.644 2.802 3.291 5.6 4.935 8.402l.04.07a82.352 82.352 0 0 0-9.449 6.752 81.778 81.778 0 0 0-14.129 15.078 80.042 80.042 0 0 0-5.946 9.569 80.016 80.016 0 0 0-3.689 8.022 79.52 79.52 0 0 0-4.454 16.019c-.055.325-.107.654-.159.979a80.68 80.68 0 0 0-.468 3.539h162.944a80.68 80.68 0 0 0-.468-3.539l.012-.008Z"/><path fill="#202124" d="M356.36 170.608c3.26-2.142 3.733-7.095 1.058-11.064-2.676-3.969-7.488-5.451-10.748-3.31-3.26 2.141-3.734 7.095-1.058 11.064 2.676 3.969 7.487 5.451 10.748 3.31ZM282.477 167.318c2.675-3.97 2.202-8.923-1.058-11.064-3.261-2.142-8.072-.66-10.748 3.31-2.676 3.969-2.202 8.922 1.058 11.063 3.26 2.142 8.072.66 10.748-3.309Z"/></g><path stroke="#174EA6" stroke-linecap="round" stroke-width="3" d="M197.5 126.408 266.799 193h96.402l68.299-66.592"/><path fill="#C6FF00" d="M398.787 65.629c.96-2.629 4.677-2.629 5.637 0l3.753 10.283a20 20 0 0 0 11.761 11.867l10.182 3.82c2.595.974 2.595 4.644 0 5.618l-10.182 3.82a20 20 0 0 0-11.761 11.868l-3.753 10.282c-.96 2.629-4.677 2.629-5.637 0l-3.753-10.282a20 20 0 0 0-11.761-11.868l-10.182-3.82c-2.595-.974-2.595-4.644 0-5.618l10.182-3.82a20 20 0 0 0 11.761-11.867l3.753-10.283ZM366.573 49.817c.421-1.421 2.433-1.421 2.854 0l1.771 5.977a2.976 2.976 0 0 0 2.008 2.008l5.977 1.77c1.421.422 1.421 2.434 0 2.855l-5.977 1.77a2.976 2.976 0 0 0-2.008 2.01l-1.771 5.976c-.421 1.421-2.433 1.421-2.854 0l-1.771-5.977a2.976 2.976 0 0 0-2.008-2.008l-5.977-1.77c-1.421-.422-1.421-2.434 0-2.855l5.977-1.77a2.976 2.976 0 0 0 2.008-2.01l1.771-5.976ZM213.589 100.429c.526-1.776 3.042-1.776 3.568 0l2.213 7.471a3.722 3.722 0 0 0 2.511 2.511l7.471 2.213c1.776.527 1.776 3.042 0 3.568l-7.471 2.214a3.719 3.719 0 0 0-2.511 2.51l-2.213 7.471c-.526 1.776-3.042 1.776-3.568 0l-2.213-7.471a3.719 3.719 0 0 0-2.511-2.51l-7.471-2.214c-1.776-.526-1.776-3.041 0-3.568l7.471-2.213a3.722 3.722 0 0 0 2.511-2.511l2.213-7.471Z"/><rect width="80" height="8" x="288" y="300.397" fill="#0D652D" rx="4"/><rect width="80" height="8" x="288" y="316.397" fill="#0D652D" rx="4"/><rect width="40" height="6.833" x="288" y="332.397" fill="#0D652D" rx="3.417"/><rect width="80" height="79.998" x="96.121" y="136.001" fill="#34A853" rx="6.667"/><path fill="#0D652D" d="M128.83 164.342a1.667 1.667 0 0 0-2.87.027l-13.425 23.204c-.643 1.111.159 2.501 1.443 2.501h46.31c1.408 0 2.181-1.637 1.288-2.724l-10.513-12.806a1.668 1.668 0 0 0-2.557-.023l-6.419 7.537a1.667 1.667 0 0 1-2.696-.22l-10.561-17.496Z"/></svg>