<?xml version="1.0" encoding="UTF-8"?>
<!-- Uploaded to: SVG Repo, www.svgrepo.com, Transformed by: SVG Repo Mixer Tools -->
<svg xmlns="http://www.w3.org/2000/svg" xmlns:xlink="http://www.w3.org/1999/xlink" fill="#6A5CED" height="800px" width="800px" version="1.1" viewBox="0 0 512 512">
  <g id="SVGRepo_bgCarrier" stroke-width="0"></g>
  <g id="SVGRepo_tracerCarrier" stroke-linecap="round" stroke-linejoin="round"></g>
  <g id="SVGRepo_iconCarrier">
    <g>
      <g>
        <path d="m164.1,235.3h183.7c11.3,0 20.4-9.1 20.4-20.4v-183.5c0-11.3-9.1-20.4-20.4-20.4h-183.7c-11.3,0-20.4,9.1-20.4,20.4v183.4c0,11.3 9.1,20.5 20.4,20.5z"></path>
        <path d="m215.2,276.7h-183.8c-11.3,0-20.4,9.1-20.4,20.4v183.4c0,11.3 9.1,20.4 20.4,20.4h183.7c11.3,0 20.4-9.1 20.4-20.4v-183.3c0.1-11.3-9.1-20.5-20.3-20.5z"></path>
        <path d="m480.6,276.7h-183.8c-11.3,0-20.4,9.1-20.4,20.4v183.4c0,11.3 9.1,20.4 20.4,20.4h183.7c11.3,0 20.4-9.1 20.4-20.4v-183.3c0.1-11.3-9-20.5-20.3-20.5z"></path>
      </g>
    </g>
  </g>
</svg>
