<svg xmlns="http://www.w3.org/2000/svg" width="96" height="96" fill="none"><path fill="#34A853" fill-rule="evenodd" d="M83.993 47.77a.22.22 0 0 1 .007.037c-.004-1.515-.973-3.047-2.895-4.245a10.085 10.085 0 0 0-.414-.246l-11.555-6.523-3.695-2.085-15.476-8.73v.002L19.916 9.033a9.175 9.175 0 0 0-.457-.242l-.137-.066a8.82 8.82 0 0 0-.791-.332l-.116-.041a6.54 6.54 0 0 0-1.327-.312l-.018-.002c-1.344-.16-2.511.189-3.383.98l-.001-.001-.014.014c-.07.064-.139.132-.205.2l-.013.015-.011.011a4.15 4.15 0 0 0-.13.147l-.076.093c-.03.038-.063.077-.092.118a4.203 4.203 0 0 0-.165.234l-.02.031c-.05.08-.1.161-.146.245l-.028.053c-.046.083-.09.17-.132.26l-.016.032c-.1.217-.187.44-.259.667l-.001.004c-.036.113-.07.228-.1.343l-.01.043a7.243 7.243 0 0 0-.081.358l-.002.011c-.026.13-.049.263-.068.4l-.002.019c-.01.073-.018.15-.026.224 0 0-.09.923-.089 1.065l.002.455.047 42.259.017 16.243.131 9.391.088 1.456c.156 1.453.644 2.597 1.392 3.39l.207.2.027.024v-.003c.064.056.13.11.198.162.023.018.046.038.07.054.074.055.151.105.228.154.025.016.05.033.076.048h.001c.19.113.389.21.595.288l.055.022a3.956 3.956 0 0 0 .702.186c1.239.216 2.706-.086 4.276-.986l29.26-16.725h.06l16.114-9.21 3.373-1.928.008-.005 3.836-2.195 7.982-4.565c1.086-.62 1.9-1.34 2.442-2.106.516-.729.784-1.502.808-2.277.001-.04.005-.083.005-.124l-.005.033c0-.026 0-.05-.002-.075Z" clip-rule="evenodd"/></svg>