<svg xmlns="http://www.w3.org/2000/svg" width="96" height="96" fill="none"><path fill="#4285F4" d="M77.82 23.497a4.564 4.564 0 0 0-2.71-3.995l-17.406-7.62-8.013-3.544a3.95 3.95 0 0 0-3.197 0l-8.013 3.545-17.555 7.58a4.569 4.569 0 0 0-2.71 3.944c-.299 6.018-.428 20.046.575 25.433 3.444 18.413 21.03 33.018 27.177 37.631a3.552 3.552 0 0 0 4.268.03c6.303-4.6 24.498-19.316 27.158-37.661.784-5.407.664-19.315.426-25.343Z"/><path fill="#174EA6" fill-rule="evenodd" d="M48 8.001a3.95 3.95 0 0 0-1.506.337l-8.013 3.545-17.555 7.58a4.568 4.568 0 0 0-2.711 3.944c-.298 6.018-.427 20.046.576 25.433 3.444 18.414 21.029 33.018 27.176 37.631.611.459 1.32.701 2.033.726V8Z" clip-rule="evenodd"/></svg>