<svg xmlns="http://www.w3.org/2000/svg" width="96" height="96" fill="none"><path fill="#4285F4" fill-rule="evenodd" d="m20.14 32.158-.05.029-9.794 5.654a3.789 3.789 0 1 0 3.789 6.563l1.815-1.049a32.202 32.202 0 0 0 36.607 36.26A32.204 32.204 0 0 0 68.21 72.67c1.651-1.353 1.587-3.82.047-5.297-1.541-1.478-3.972-1.397-5.673-.108a24.475 24.475 0 0 1-39.148-21.82l1 1.732a3.789 3.789 0 0 0 6.562-3.789l-5.683-9.843a3.789 3.789 0 0 0-5.175-1.387Z" clip-rule="evenodd"/><path fill="#34A853" fill-rule="evenodd" d="m75.86 62.62.05-.029 9.794-5.654a3.789 3.789 0 1 0-3.789-6.562L80.1 51.423a32.203 32.203 0 0 0-52.31-29.315c-1.651 1.353-1.587 3.82-.046 5.298 1.54 1.477 3.971 1.396 5.672.107a24.474 24.474 0 0 1 39.148 21.82l-1-1.731a3.789 3.789 0 0 0-6.562 3.788l5.683 9.843a3.789 3.789 0 0 0 5.175 1.387Z" clip-rule="evenodd"/></svg>