<svg xmlns="http://www.w3.org/2000/svg" width="96" height="96" fill="none"><g clip-path="url(#a)"><path fill="#174EA6" d="M20 8a4 4 0 0 0-4 4v72a4 4 0 0 0 4 4h16a4 4 0 0 0 4-4V12a4 4 0 0 0-4-4H20Z"/><path fill="#4285F4" d="M24 23a1 1 0 1 1 0 2v-2Zm-8 0h8v2h-8v-2ZM24 35a1 1 0 1 1 0 2v-2Zm-8 0h8v2h-8v-2ZM24 47a1 1 0 1 1 0 2v-2Zm-8 0h8v2h-8v-2ZM24 59a1 1 0 1 1 0 2v-2Zm-8 0h8v2h-8v-2ZM24 71a1 1 0 1 1 0 2v-2Zm-8 0h8v2h-8v-2ZM31.514 76.284c4.686 4.686 12.284 4.686 16.97 0l1.564-1.565-16.97-16.97-1.564 1.565c-4.686 4.686-4.686 12.284 0 16.97ZM33.001 57.67l32.19-32.19 16.97 16.97-32.19 32.19L33 57.67Z"/><path fill="#4285F4" fill-rule="evenodd" d="M76.493 36.783c-1.534 1.535-1.51 4.048.055 5.612 1.564 1.565 4.077 1.59 5.612.054.62-.619.986-1.398 1.098-2.21l3.1-13.142c.825-3.496-2.317-6.639-5.814-5.814l-13.113 3.094a3.865 3.865 0 0 0-2.24 1.102c-1.535 1.535-1.511 4.048.054 5.613 1.55 1.55 4.029 1.588 5.568.098-1.49 1.538-1.458 4.01.083 5.552 1.556 1.555 4.06 1.573 5.596.04h.001Z" clip-rule="evenodd"/><ellipse cx="77.494" cy="38.621" fill="#E8F0FE" rx="4.007" ry="3.931" transform="rotate(-135 77.494 38.62)"/><path fill="#E8F0FE" d="m81.454 39.85 3.039-12.764a1.91 1.91 0 0 0-.046-1.046c-.504-1.511-2.528-1.777-3.405-.448l-6.848 10.383a3 3 0 0 0 1.286 4.393l2.305 1.025c.538.24 1.133.322 1.715.239a2.35 2.35 0 0 0 1.954-1.782Z"/><ellipse cx="73.422" cy="33.921" fill="#E8F0FE" rx="4.007" ry="3.931" transform="rotate(-112.103 73.422 33.921)"/><path fill="#E8F0FE" d="m76.592 36.594 7.765-10.576c.211-.287.337-.627.365-.981.124-1.589-1.637-2.621-2.962-1.737L71.41 30.2a3 3 0 0 0-.524 4.547l1.725 1.841c.402.43.918.737 1.487.887a2.35 2.35 0 0 0 2.493-.88Z"/><ellipse cx="4.007" cy="3.931" fill="#E8F0FE" rx="4.007" ry="3.931" transform="scale(1 -1) rotate(-45 -4.621 -91.583)"/><path fill="#E8F0FE" d="m67.79 26.186 12.764-3.04a1.91 1.91 0 0 1 1.046.047c1.51.504 1.777 2.527.447 3.405l-10.383 6.848a3 3 0 0 1-4.393-1.286l-1.025-2.305a3.133 3.133 0 0 1-.238-1.716 2.35 2.35 0 0 1 1.782-1.953Z"/><path fill="#202124" d="M85.317 20.152a1.798 1.798 0 0 1 2.162 2.165l-1.638 6.889s-2.555.5-5.24-2.186c-2.686-2.685-2.186-5.24-2.186-5.24l6.902-1.628Z"/><path stroke="#202124" stroke-linecap="round" stroke-width="2" d="M69.045 32.892 40.731 61.206M74.743 38.59 46.43 66.906"/><path fill="#E8F0FE" d="M49.97 74.639 33 57.669l2.121-2.122 16.97 16.97z"/></g><defs><clipPath id="a"><path fill="#fff" d="M0 0h96v96H0z"/></clipPath></defs></svg>